<svg width="100" height="100" viewBox="0 0 100 100" fill="none" xmlns="http://www.w3.org/2000/svg">
<mask id="mask0_119_2497" style="mask-type:luminance" maskUnits="userSpaceOnUse" x="9" y="22" width="34" height="39">
<path d="M9.3335 22.1333H42.2679V60.5333H9.3335V22.1333Z" fill="white"/>
</mask>
<g mask="url(#mask0_119_2497)">
<path d="M18.2712 48.4479C18.0983 47.7052 18.5108 46.9469 19.2316 46.7L21.5274 45.8896L21.1149 44.726C20.1545 42.0031 21.5868 39.0021 24.3108 38.0417C27.0347 37.0812 30.0358 38.5146 30.9962 41.2375L31.4087 42.401L33.7045 41.5906C34.4243 41.3354 35.2201 41.6656 35.5503 42.3479L40.8618 53.2719L42.3024 35.3104C42.3847 34.2677 41.6722 33.3292 40.6524 33.1271L37.3878 32.4896L37.7108 30.8312C38.4691 26.9448 35.9326 23.1708 32.0462 22.4052C28.1597 21.6479 24.3858 24.1833 23.6201 28.0698L23.2983 29.7281L20.0337 29.0906C19.0066 28.8875 17.9931 29.4885 17.6785 30.4864L9.66493 55.8083C9.28264 57.0156 10.0399 58.2917 11.2858 58.5396L21.0316 60.4521L18.2712 48.4479ZM36.8035 35.4979C36.7056 35.9927 36.2253 36.3156 35.7306 36.2177C35.2347 36.1208 34.9118 35.6406 35.0097 35.1448C35.1076 34.65 35.5878 34.3271 36.0826 34.425C36.5701 34.5229 36.9003 35.0031 36.8035 35.4979ZM25.4285 28.4302C25.9993 25.5417 28.8045 23.651 31.7014 24.2135C34.5972 24.776 36.4806 27.5896 35.9181 30.4864L35.5951 32.1437L25.1056 30.0885L25.4285 28.4302ZM23.7931 32.0167C24.2878 32.1146 24.6108 32.5948 24.5128 33.0896C24.416 33.5844 23.9358 33.9073 23.4399 33.8094C22.9451 33.7125 22.6222 33.2323 22.7201 32.7364C22.8097 32.2417 23.2899 31.9187 23.7931 32.0167Z" fill="#F97C7C"/>
</g>
<path d="M29.7354 41.6802C29.0219 39.6542 26.7865 38.5813 24.7531 39.3021C22.7271 40.0146 21.6542 42.25 22.375 44.2833L22.7875 45.4469L30.1479 42.851L29.7354 41.6802Z" fill="#F97C7C"/>
<path d="M22.6751 47.15C22.3293 47.2698 22.1418 47.6521 22.2699 48.0052C22.3897 48.35 22.772 48.5375 23.1251 48.4104C23.4699 48.2906 23.6574 47.9073 23.5303 47.5552C23.4106 47.2094 23.0272 47.0219 22.6751 47.15Z" fill="#F97C7C"/>
<path d="M31.7461 45.3646C32.0908 45.2437 32.2783 44.8615 32.1513 44.5083C32.0315 44.1635 31.6481 43.976 31.2961 44.1042C30.9429 44.2312 30.7627 44.6062 30.8908 44.9594C31.0179 45.3042 31.4013 45.4917 31.7461 45.3646Z" fill="#F97C7C"/>
<path d="M25.4459 60.5561L25.0834 60.3228L24.8834 59.9436L24.9042 55.9519L24.8667 55.6103L24.9209 53.7853L24.8834 53.4228L24.9042 50.5353L24.8667 50.2103L24.9209 49.5061L24.8667 48.4061L25.0667 48.0269L25.4625 47.8478L25.9667 47.9894L26.3834 48.2978L26.8542 48.7853L27.1417 49.0394L27.6125 49.5978L27.8625 49.8144L29.5084 51.6394L29.9042 51.9978L30.2292 52.4144L30.4834 52.6644L30.7 52.9728L31.0792 53.1186L31.4042 52.9019L32.5042 51.7811L32.7375 51.4769L34.325 49.8519L34.5792 49.5269L34.7959 49.3269L35.0292 49.0394L35.7875 48.2436L36.1667 48.0103L36.6917 47.8478L37.0709 48.0436L37.2875 48.4228L37.25 48.7686L37.2709 49.5061L37.25 49.8144L37.2875 50.5894L37.2709 50.9353L37.2875 52.7186L37.25 53.1186L37.2875 58.5353L37.25 58.8936L37.3042 59.8353L37.0875 60.3561L36.7084 60.5561L34.525 60.4853L34.1459 60.3769L34 59.9603V59.6894L33.9667 58.8769L34 58.5519L33.9667 57.8853L34 57.1811L33.9459 56.4561L33.9834 55.4644L33.8375 55.1936L33.6042 55.3019L32.8625 56.0603L32.6125 56.2394L32.1084 56.8353L31.8917 57.0519L31.6375 57.3228L31.275 57.5936L30.8792 57.5769L30.5 57.3061L30.0125 56.8353L29.7792 56.5478L29.0375 55.8061L28.8209 55.5353L28.5334 55.3019L28.35 55.2311L28.1875 55.3936V56.0978L28.225 56.4936L28.1875 57.1436L28.2084 57.5228L28.1542 58.0811L28.2084 59.9769L27.9917 60.3019L27.4834 60.5186L26.9084 60.4853L26.5084 60.5394L25.8042 60.5019L25.4459 60.5561Z" fill="#F97C7C"/>
<path d="M45.4133 60.7186L45.0341 60.6811L44.3841 60.5395L43.9841 60.502L43.4633 60.3228L42.0549 59.5978L41.4591 59.1311L41.2591 58.8936L40.9883 58.6436L40.7549 58.352L40.5383 58.1353L39.7049 56.4936L39.5424 55.8061L39.5091 55.4645L39.4174 55.1395L39.3633 54.7603L39.4174 53.2978L39.7258 51.9061L39.9966 51.2228L40.5549 50.2645L41.4383 49.2353L42.0549 48.7853L42.3799 48.6228L42.6508 48.4228L44.0049 47.9186L45.9174 47.6478L46.4049 47.6645L47.4508 47.8478L48.8424 48.2811L49.1133 48.477L49.6549 48.7145L50.0674 49.002L50.5924 49.452L51.0966 50.0145L51.4966 50.5561L51.8383 51.2228L52.2883 52.577L52.4174 53.3145L52.4716 54.2186L52.3966 54.7436L52.3799 55.1228L52.2883 55.4811L52.2716 55.8061L52.1258 56.4936L51.8549 57.1811L51.0633 58.3895L50.8091 58.6436L50.5758 58.9686L50.0674 59.402L49.7258 59.5645L49.4549 59.7811L48.8591 60.1061L47.5049 60.5561L46.4216 60.702L45.4133 60.7186ZM46.4216 57.5228L46.7841 57.452L47.0549 57.3228L47.3799 57.2353L48.2466 56.6395L48.4966 56.3478L48.6049 56.077L48.8049 55.752L48.9299 55.427L49.0758 54.7603L49.1133 53.6603L49.0591 53.3353L48.8966 52.9895L48.6799 52.3061L47.9758 51.5645L47.4174 51.1686L47.0924 51.0228L46.7674 50.952L45.9008 50.8436L45.3924 50.8811L44.6883 51.0603L44.4549 51.152L43.5508 51.7645L43.1174 52.3395L43.0091 52.6645L42.8674 52.9895L42.8133 53.3353L42.7216 53.6603V54.7603L42.8674 55.427L43.0299 55.752L43.1174 56.0436L43.3716 56.3853L43.6049 56.6395L44.0924 57.0353L44.3841 57.1978L45.0341 57.4686L45.4299 57.5228H46.4216Z" fill="#F97C7C"/>
<path d="M58.6999 60.5561L57.9583 60.4853L57.5958 60.5394L55.3958 60.5019L55.0333 60.5394L54.6708 60.3561L54.4916 59.7978V58.8769L54.4541 58.5353L54.4749 48.4436L54.6374 48.0644L55.0333 47.9019L55.3958 47.9186L55.7208 47.8644L59.8374 47.9019L60.8999 48.0644L61.2791 48.1519L61.5874 48.2978L61.9499 48.3686L62.2916 48.5686L63.2124 49.1811L64.1666 50.2478L64.7833 51.2061L64.9249 51.5478L65.1624 52.2311L65.4124 53.6603L65.4333 54.1811L65.3791 54.7603V55.1394L65.3249 55.5019L65.2166 55.8061L65.1416 56.1853L65.0541 56.5311L64.7624 57.2353L64.5458 57.5228L64.3666 57.8853L63.4833 59.0228L62.2708 59.8353L61.4249 60.1936L60.6833 60.3228L60.1624 60.4853H59.7999L59.2416 60.5561H58.6999ZM58.6458 57.5936L59.1874 57.5769L59.9624 57.4853L60.4874 57.3228L61.0999 56.9269L61.7666 56.1686L62.0749 55.5019L62.2541 54.2353L61.9666 52.6478L61.8041 52.3228L61.6249 52.0144L61.3541 51.6894L61.0833 51.4394L60.8124 51.2394L60.4874 51.0769L59.7833 50.8811L59.2583 50.8269L58.4999 50.8436L57.9208 50.9686L57.7416 51.3853L57.7041 51.6894L57.7416 54.1811L57.6708 55.0853L57.7416 55.9686L57.7249 56.7103L57.7416 57.0186L57.8874 57.3603L58.2999 57.5603L58.6458 57.5936Z" fill="#F97C7C"/>
<path d="M67.6156 59.9436L67.6531 59.2561L67.599 57.8103L67.6323 57.4519L67.599 56.0061L67.6531 55.3019L67.599 54.9228L67.6531 54.5811L67.599 53.8019L67.6531 53.1186L67.5781 51.6728L67.6323 51.3144L67.5781 50.9519L67.6323 50.5561L67.599 49.8686L67.6156 49.5061L67.5781 49.1478V48.4061L67.849 48.0644L68.174 47.8644L68.5531 47.8811L68.8781 47.8644L69.2406 47.9019L70.3948 47.8644L70.7573 47.9019L73.3198 47.9186L74.0615 48.0644L75.0531 48.3894L75.4156 48.5686L76.0823 48.9853L76.5865 49.4728L76.8948 49.7061L77.3656 50.2644L77.5073 50.5728L77.924 51.1853L78.1948 51.9061L78.2865 52.2311L78.3198 52.6103L78.5906 53.6394L78.5198 54.7978L78.5365 55.1019L78.449 55.4811L78.3948 55.8603L78.2656 56.1853L78.1948 56.5478L78.0156 56.8894L77.924 57.2353L77.3656 58.1353L76.6406 58.9686L75.1073 59.9978L74.0615 60.3228L72.9073 60.4853L69.6573 60.5019L69.2781 60.5561H68.9156L68.5365 60.5019H68.1198L67.8323 60.3394L67.6156 59.9436ZM71.4448 57.5936L72.9406 57.5228L73.5906 57.3436L73.9531 57.1603L74.2406 56.9811L74.4573 56.6936L74.6948 56.4394L74.9281 56.1144L75.199 55.4644L75.3073 55.1228L75.3948 54.2353L75.3406 53.6769L75.124 52.6103L74.8906 52.3228L74.6948 51.9811L74.2406 51.4769L73.6281 51.0769L72.9073 50.8603L72.3656 50.8269L71.9865 50.8436L71.6073 50.8269L71.0823 51.0228L70.8656 51.3478V55.9894L70.8115 56.3478L70.8823 56.6728L70.849 57.0353L71.0115 57.4311L71.4448 57.5936Z" fill="#F97C7C"/>
<path d="M80.686 59.9769L80.7569 59.6186L80.7777 59.2561L80.7402 58.5519V58.1894L80.7027 57.7769L80.7569 57.4519L80.7402 57.1061L80.7777 56.7103L80.7235 56.3311L80.7569 55.6103L80.7027 54.9061L80.7569 54.5269V51.2936L80.7235 50.9686L80.7569 50.5894L80.686 49.6686L80.7569 49.1478L80.7235 48.4228L80.9027 48.0269L81.4277 47.9019L83.7902 47.8478L84.1152 47.8811L84.8194 47.8644L85.1819 47.9019L85.9777 47.8644L86.336 47.9186L86.661 47.8811L88.1069 47.9019L88.486 48.0644L88.6652 48.4228L88.611 48.7686L88.5944 49.1644L88.6485 49.5061L88.6819 50.2478L88.486 50.5728L88.1069 50.7728L84.6402 50.7894L84.0819 50.9519L83.8985 51.4769L83.936 52.0353L84.1527 52.3603L84.461 52.5561L85.886 52.5394L86.3027 52.5769H86.6819L87.0402 52.5394L87.7652 52.5561L88.0694 52.7561L88.2319 53.0978L88.2694 53.4603L88.2319 54.8853L88.0527 55.2311L87.6902 55.4269L87.3652 55.4478L86.986 55.4103L86.4985 55.4478L85.5444 55.3936L85.1819 55.4269H84.4777L84.1527 55.6269L83.9902 56.0061L83.9735 56.8894L84.136 57.4519L84.5152 57.6686L84.911 57.6311L85.3069 57.6686L85.6527 57.6144L88.036 57.6478L88.5735 57.8311L88.811 58.1894L88.7735 58.5353L88.7902 59.6519L88.7569 59.9978L88.5944 60.3394L88.2152 60.5186L87.8735 60.5561L86.7694 60.4853L85.6694 60.5394L85.3444 60.4853L81.2652 60.5186L80.9194 60.3228L80.686 59.9769Z" fill="#F97C7C"/>
</svg>
