<svg width="34" height="39" viewBox="0 0 34 39" fill="none" xmlns="http://www.w3.org/2000/svg">
<g id="Clip path group">
<mask id="mask0_299_698" style="mask-type:luminance" maskUnits="userSpaceOnUse" x="0" y="0" width="34" height="39">
<g id="cb27035d9d">
<path id="Vector" d="M0.333496 0.133331H33.2679V38.5333H0.333496V0.133331Z" fill="white"/>
</g>
</mask>
<g mask="url(#mask0_299_698)">
<g id="Group">
<path id="Vector_2" d="M9.27118 26.4479C9.09826 25.7052 9.51077 24.9469 10.2316 24.7L12.5274 23.8896L12.1149 22.726C11.1545 20.0031 12.5868 17.0021 15.3108 16.0417C18.0347 15.0812 21.0358 16.5146 21.9962 19.2375L22.4087 20.401L24.7045 19.5906C25.4243 19.3354 26.2201 19.6656 26.5504 20.3479L31.8618 31.2719L33.3024 13.3104C33.3847 12.2677 32.6722 11.3292 31.6524 11.1271L28.3878 10.4896L28.7108 8.83124C29.4691 4.94478 26.9326 1.17082 23.0462 0.405195C19.1597 -0.352096 15.3858 2.18332 14.6201 6.06978L14.2983 7.72811L11.0337 7.09061C10.0066 6.88749 8.99306 7.48853 8.67847 8.48644L0.664931 33.8083C0.282639 35.0156 1.03993 36.2916 2.28576 36.5396L12.0316 38.4521L9.27118 26.4479ZM27.8035 13.4979C27.7056 13.9927 27.2253 14.3156 26.7306 14.2177C26.2347 14.1208 25.9118 13.6406 26.0097 13.1448C26.1076 12.65 26.5878 12.3271 27.0826 12.425C27.5701 12.5229 27.9003 13.0031 27.8035 13.4979ZM16.4285 6.43019C16.9993 3.54165 19.8045 1.65103 22.7014 2.21353C25.5972 2.77603 27.4806 5.58957 26.9181 8.48644L26.5951 10.1437L16.1056 8.08853L16.4285 6.43019ZM14.7931 10.0167C15.2878 10.1146 15.6108 10.5948 15.5128 11.0896C15.416 11.5844 14.9358 11.9073 14.4399 11.8094C13.9451 11.7125 13.6222 11.2323 13.7201 10.7364C13.8097 10.2417 14.2899 9.91874 14.7931 10.0167Z" fill="#F97C7C"/>
</g>
</g>
</g>
</svg>
