<svg width="22" height="22" viewBox="0 0 22 22" fill="none" xmlns="http://www.w3.org/2000/svg">
<path d="M11.77 13.255L17.985 7.04L16.445 5.445L11.77 10.12L9.405 7.81L7.865 9.35L11.77 13.255ZM6.6 17.6C5.995 17.6 5.47708 17.3846 5.04625 16.9538C4.61542 16.5229 4.4 16.005 4.4 15.4V2.2C4.4 1.595 4.61542 1.07708 5.04625 0.64625C5.47708 0.215417 5.995 0 6.6 0H19.8C20.405 0 20.9229 0.215417 21.3538 0.64625C21.7846 1.07708 22 1.595 22 2.2V15.4C22 16.005 21.7846 16.5229 21.3538 16.9538C20.9229 17.3846 20.405 17.6 19.8 17.6H6.6ZM2.2 22C1.595 22 1.07708 21.7846 0.64625 21.3538C0.215417 20.9229 0 20.405 0 19.8V4.4H2.2V19.8H17.6V22H2.2Z" fill="#39C568"/>
</svg>
