<svg width="28" height="28" viewBox="0 0 28 28" fill="none" xmlns="http://www.w3.org/2000/svg">
<g id="vuesax/linear/messages">
<g id="messages">
<g id="Group">
<path id="Vector" d="M20.9768 12.5883V17.255C20.9768 17.5583 20.9652 17.85 20.9302 18.13C20.6618 21.28 18.8068 22.8433 15.3885 22.8433H14.9218C14.6302 22.8433 14.3502 22.9833 14.1752 23.2167L12.7752 25.0833C12.1568 25.9117 11.1535 25.9117 10.5352 25.0833L9.13515 23.2167C8.98348 23.0183 8.64517 22.8433 8.3885 22.8433H7.92184C4.20017 22.8433 2.3335 21.9217 2.3335 17.255V12.5883C2.3335 9.17001 3.90851 7.31501 7.04684 7.04668C7.32684 7.01168 7.61851 7 7.92184 7H15.3885C19.1102 7 20.9768 8.86668 20.9768 12.5883Z" stroke="#7C7C7C" stroke-width="1.5" stroke-miterlimit="10" stroke-linecap="round" stroke-linejoin="round"/>
</g>
<path id="Vector_2" d="M25.6435 7.92169V12.5884C25.6435 16.0184 24.0685 17.8617 20.9302 18.13C20.9652 17.85 20.9769 17.5584 20.9769 17.255V12.5884C20.9769 8.86669 19.1102 7.00001 15.3885 7.00001H7.92188C7.61854 7.00001 7.32688 7.01169 7.04688 7.04669C7.31521 3.90835 9.17021 2.33334 12.5885 2.33334H20.0552C23.7769 2.33334 25.6435 4.20002 25.6435 7.92169Z" stroke="#7C7C7C" stroke-width="1.5" stroke-miterlimit="10" stroke-linecap="round" stroke-linejoin="round"/>
<path id="Vector_3" d="M15.7446 15.4583H15.7551" stroke="#7C7C7C" stroke-width="2" stroke-linecap="round" stroke-linejoin="round"/>
<path id="Vector_4" d="M11.6616 15.4583H11.6721" stroke="#7C7C7C" stroke-width="2" stroke-linecap="round" stroke-linejoin="round"/>
<path id="Vector_5" d="M7.57808 15.4583H7.58858" stroke="#7C7C7C" stroke-width="2" stroke-linecap="round" stroke-linejoin="round"/>
</g>
</g>
</svg>
