<svg width="262" height="293" viewBox="0 0 262 293" fill="none" xmlns="http://www.w3.org/2000/svg">
<g filter="url(#filter0_dddd_803_2447)">
<mask id="mask0_803_2447" style="mask-type:luminance" maskUnits="userSpaceOnUse" x="41" y="52" width="75" height="93">
<path d="M41.9067 52.8987H115.68V144.675H41.9067V52.8987Z" fill="white"/>
</mask>
<g mask="url(#mask0_803_2447)">
<path d="M61.9267 115.791C61.5393 114.015 62.4633 112.203 64.078 111.613L69.2207 109.676L68.2967 106.895C66.1453 100.387 69.3537 93.215 75.4553 90.9196C81.557 88.6242 88.2793 92.0499 90.4307 98.5576L91.3547 101.339L96.4973 99.4016C98.1097 98.7917 99.8923 99.5809 100.632 101.212L112.53 127.32L115.757 84.3919C115.941 81.8998 114.345 79.6567 112.061 79.1737L104.748 77.6501L105.471 73.6867C107.17 64.3981 101.488 55.3783 92.7827 53.5485C84.077 51.7385 75.6233 57.7982 73.9083 67.0868L73.1873 71.0502L65.8747 69.5266C63.574 69.0411 61.3037 70.4776 60.599 72.8626L42.6487 133.382C41.7923 136.267 43.4887 139.317 46.2793 139.91L68.11 144.48L61.9267 115.791ZM103.439 84.84C103.22 86.0226 102.144 86.7944 101.036 86.5603C99.925 86.3288 99.2017 85.1811 99.421 83.9961C99.6403 82.8135 100.716 82.0417 101.824 82.2758C102.916 82.5098 103.656 83.6575 103.439 84.84ZM77.959 67.9482C79.2377 61.0446 85.5213 56.526 92.0103 57.8704C98.497 59.2148 102.716 65.9391 101.456 72.8626L100.732 76.8236L77.2357 71.9116L77.959 67.9482ZM74.2957 76.5198C75.404 76.7539 76.1273 77.9016 75.908 79.0841C75.691 80.2667 74.6153 81.0384 73.5047 80.8044C72.3963 80.5729 71.673 79.4252 71.8923 78.2401C72.093 77.0576 73.1687 76.2858 74.2957 76.5198Z" fill="#23272E"/>
</g>
<path d="M87.6074 99.6157C86.0091 94.7735 81.0017 92.2092 76.4471 93.932C71.9087 95.6349 69.5054 100.978 71.1201 105.837L72.0441 108.618L88.5314 102.414L87.6074 99.6157Z" fill="#23272E"/>
<path d="M71.7919 112.688C71.0173 112.975 70.5973 113.888 70.8843 114.732C71.1526 115.556 72.0089 116.005 72.7999 115.701C73.5723 115.415 73.9923 114.498 73.7076 113.657C73.4393 112.83 72.5806 112.382 71.7919 112.688Z" fill="#23272E"/>
<path d="M92.1106 108.421C92.8829 108.133 93.3029 107.219 93.0182 106.375C92.7499 105.551 91.8912 105.103 91.1026 105.409C90.3116 105.713 89.9079 106.609 90.1949 107.453C90.4796 108.277 91.3382 108.725 92.1106 108.421Z" fill="#23272E"/>
<path d="M77.999 144.729L77.187 144.171L76.739 143.265L76.7857 133.725L76.7017 132.909L76.823 128.547L76.739 127.68L76.7857 120.779L76.7017 120.003L76.823 118.32L76.7017 115.691L77.1497 114.784L78.0363 114.356L79.1657 114.695L80.099 115.432L81.1537 116.597L81.7977 117.204L82.8523 118.539L83.4123 119.057L87.099 123.418L87.9857 124.275L88.7137 125.271L89.283 125.868L89.7683 126.605L90.6177 126.953L91.3457 126.436L93.8097 123.757L94.3323 123.03L97.8883 119.146L98.4577 118.369L98.943 117.891L99.4657 117.204L101.164 115.302L102.014 114.745L103.19 114.356L104.039 114.824L104.524 115.73L104.44 116.557L104.487 118.32L104.44 119.057L104.524 120.909L104.487 121.735L104.524 125.997L104.44 126.953L104.524 139.899L104.44 140.756L104.562 143.006L104.076 144.251L103.227 144.729L98.3363 144.56L97.487 144.301L97.1603 143.305V142.658L97.0857 140.716L97.1603 139.939L97.0857 138.346L97.1603 136.663L97.039 134.93L97.123 132.56L96.7963 131.913L96.2737 132.172L94.6123 133.984L94.0523 134.412L92.923 135.836L92.4377 136.354L91.8683 137.001L91.0563 137.649L90.1697 137.609L89.3203 136.962L88.2283 135.836L87.7057 135.149L86.0443 133.377L85.559 132.729L84.915 132.172L84.5043 132.002L84.1403 132.391V134.074L84.2243 135.02L84.1403 136.573L84.187 137.479L84.0657 138.814L84.187 143.345L83.7017 144.122L82.563 144.639L81.275 144.56L80.379 144.689L78.8017 144.6L77.999 144.729Z" fill="#23272E"/>
<path d="M122.725 145.117L121.876 145.028L120.42 144.689L119.524 144.6L118.357 144.171L115.203 142.439L113.868 141.323L113.42 140.756L112.813 140.158L112.291 139.461L111.805 138.943L109.939 135.02L109.575 133.377L109.5 132.56L109.295 131.783L109.173 130.877L109.295 127.382L109.985 124.056L110.592 122.422L111.843 120.132L113.821 117.672L115.203 116.597L115.931 116.208L116.537 115.73L119.571 114.525L123.855 113.878L124.947 113.918L127.289 114.356L130.407 115.392L131.013 115.86L132.227 116.428L133.151 117.115L134.327 118.19L135.456 119.535L136.352 120.829L137.117 122.422L138.125 125.659L138.415 127.422L138.536 129.582L138.368 130.837L138.331 131.743L138.125 132.6L138.088 133.377L137.761 135.02L137.155 136.663L135.381 139.551L134.812 140.158L134.289 140.935L133.151 141.971L132.385 142.359L131.779 142.877L130.444 143.654L127.411 144.729L124.984 145.078L122.725 145.117ZM124.984 137.479L125.796 137.31L126.403 137.001L127.131 136.792L129.072 135.368L129.632 134.671L129.875 134.024L130.323 133.247L130.603 132.47L130.929 130.877L131.013 128.248L130.892 127.471L130.528 126.645L130.043 125.012L128.465 123.239L127.215 122.293L126.487 121.944L125.759 121.775L123.817 121.516L122.679 121.606L121.101 122.034L120.579 122.253L118.553 123.717L117.583 125.091L117.34 125.868L117.023 126.645L116.901 127.471L116.696 128.248V130.877L117.023 132.47L117.387 133.247L117.583 133.944L118.152 134.761L118.675 135.368L119.767 136.314L120.42 136.703L121.876 137.35L122.763 137.479H124.984Z" fill="#23272E"/>
<path d="M152.487 144.729L150.826 144.56L150.014 144.689L145.086 144.6L144.274 144.689L143.462 144.251L143.061 142.917V140.716L142.977 139.899L143.023 115.78L143.387 114.874L144.274 114.486L145.086 114.526L145.814 114.396L155.035 114.486L157.415 114.874L158.265 115.083L158.955 115.432L159.767 115.601L160.533 116.079L162.595 117.543L164.733 120.092L166.114 122.383L166.431 123.199L166.963 124.832L167.523 128.248L167.57 129.493L167.449 130.877V131.783L167.327 132.65L167.085 133.377L166.917 134.283L166.721 135.109L166.067 136.792L165.582 137.479L165.181 138.346L163.202 141.064L160.486 143.006L158.591 143.863L156.93 144.171L155.763 144.56H154.951L153.701 144.729H152.487ZM152.366 137.649L153.579 137.609L155.315 137.39L156.491 137.001L157.863 136.055L159.357 134.243L160.047 132.65L160.449 129.622L159.805 125.828L159.441 125.051L159.039 124.315L158.433 123.538L157.826 122.94L157.219 122.462L156.491 122.074L154.914 121.606L153.738 121.476L152.039 121.516L150.742 121.815L150.341 122.811L150.257 123.538L150.341 129.493L150.182 131.654L150.341 133.765L150.303 135.538L150.341 136.275L150.667 137.091L151.591 137.569L152.366 137.649Z" fill="#23272E"/>
<path d="M172.459 143.265L172.543 141.622L172.422 138.167L172.497 137.31L172.422 133.855L172.543 132.172L172.422 131.265L172.543 130.449L172.422 128.587L172.543 126.954L172.375 123.498L172.497 122.642L172.375 121.775L172.497 120.829L172.422 119.186L172.459 118.32L172.375 117.463V115.691L172.982 114.874L173.71 114.396L174.559 114.436L175.287 114.396L176.099 114.486L178.685 114.396L179.497 114.486L185.237 114.526L186.898 114.874L189.119 115.651L189.931 116.079L191.425 117.075L192.554 118.24L193.245 118.798L194.299 120.132L194.617 120.869L195.55 122.333L196.157 124.056L196.362 124.832L196.437 125.739L197.043 128.198L196.885 130.967L196.922 131.694L196.726 132.6L196.605 133.506L196.315 134.283L196.157 135.149L195.755 135.966L195.55 136.792L194.299 138.943L192.675 140.935L189.241 143.395L186.898 144.171L184.313 144.56L177.033 144.6L176.183 144.729H175.371L174.522 144.6H173.589L172.945 144.211L172.459 143.265ZM181.037 137.649L184.387 137.479L185.843 137.051L186.655 136.613L187.299 136.185L187.785 135.498L188.317 134.89L188.839 134.114L189.446 132.56L189.689 131.743L189.885 129.622L189.763 128.288L189.278 125.739L188.755 125.051L188.317 124.235L187.299 123.03L185.927 122.074L184.313 121.556L183.099 121.476L182.25 121.516L181.401 121.476L180.225 121.944L179.739 122.721V133.815L179.618 134.671L179.777 135.448L179.702 136.314L180.066 137.26L181.037 137.649Z" fill="#23272E"/>
<path d="M201.737 143.345L201.895 142.488L201.942 141.622L201.858 139.939V139.073L201.774 138.087L201.895 137.31L201.858 136.484L201.942 135.538L201.821 134.631L201.895 132.909L201.774 131.226L201.895 130.319V122.592L201.821 121.815L201.895 120.909L201.737 118.708L201.895 117.463L201.821 115.73L202.222 114.784L203.398 114.486L208.69 114.356L209.418 114.436L210.995 114.396L211.807 114.486L213.59 114.396L214.393 114.525L215.121 114.436L218.359 114.486L219.209 114.874L219.61 115.73L219.489 116.557L219.451 117.503L219.573 118.32L219.647 120.092L219.209 120.869L218.359 121.347L210.594 121.387L209.343 121.775L208.933 123.03L209.017 124.364L209.502 125.141L210.193 125.609L213.385 125.569L214.318 125.659H215.167L215.97 125.569L217.594 125.609L218.275 126.087L218.639 126.904L218.723 127.77L218.639 131.176L218.238 132.002L217.426 132.47L216.698 132.52L215.849 132.431L214.757 132.52L212.619 132.391L211.807 132.47H210.23L209.502 132.948L209.138 133.855L209.101 135.966L209.465 137.31L210.314 137.828L211.201 137.738L212.087 137.828L212.862 137.699L218.201 137.778L219.405 138.216L219.937 139.073L219.853 139.899L219.89 142.568L219.815 143.395L219.451 144.211L218.602 144.639L217.837 144.729L215.363 144.56L212.899 144.689L212.171 144.56L203.034 144.639L202.259 144.171L201.737 143.345Z" fill="#23272E"/>
</g>
<defs>
<filter id="filter0_dddd_803_2447" x="-21" y="-7" width="308" height="393" filterUnits="userSpaceOnUse" color-interpolation-filters="sRGB">
<feFlood flood-opacity="0" result="BackgroundImageFix"/>
<feColorMatrix in="SourceAlpha" type="matrix" values="0 0 0 0 0 0 0 0 0 0 0 0 0 0 0 0 0 0 127 0" result="hardAlpha"/>
<feOffset dy="7"/>
<feGaussianBlur stdDeviation="7"/>
<feColorMatrix type="matrix" values="0 0 0 0 0 0 0 0 0 0 0 0 0 0 0 0 0 0 0.1 0"/>
<feBlend mode="normal" in2="BackgroundImageFix" result="effect1_dropShadow_803_2447"/>
<feColorMatrix in="SourceAlpha" type="matrix" values="0 0 0 0 0 0 0 0 0 0 0 0 0 0 0 0 0 0 127 0" result="hardAlpha"/>
<feOffset dy="26"/>
<feGaussianBlur stdDeviation="13"/>
<feColorMatrix type="matrix" values="0 0 0 0 0 0 0 0 0 0 0 0 0 0 0 0 0 0 0.09 0"/>
<feBlend mode="normal" in2="effect1_dropShadow_803_2447" result="effect2_dropShadow_803_2447"/>
<feColorMatrix in="SourceAlpha" type="matrix" values="0 0 0 0 0 0 0 0 0 0 0 0 0 0 0 0 0 0 127 0" result="hardAlpha"/>
<feOffset dy="59"/>
<feGaussianBlur stdDeviation="17.5"/>
<feColorMatrix type="matrix" values="0 0 0 0 0 0 0 0 0 0 0 0 0 0 0 0 0 0 0.05 0"/>
<feBlend mode="normal" in2="effect2_dropShadow_803_2447" result="effect3_dropShadow_803_2447"/>
<feColorMatrix in="SourceAlpha" type="matrix" values="0 0 0 0 0 0 0 0 0 0 0 0 0 0 0 0 0 0 127 0" result="hardAlpha"/>
<feOffset dy="105"/>
<feGaussianBlur stdDeviation="21"/>
<feColorMatrix type="matrix" values="0 0 0 0 0 0 0 0 0 0 0 0 0 0 0 0 0 0 0.01 0"/>
<feBlend mode="normal" in2="effect3_dropShadow_803_2447" result="effect4_dropShadow_803_2447"/>
<feBlend mode="normal" in="SourceGraphic" in2="effect4_dropShadow_803_2447" result="shape"/>
</filter>
</defs>
</svg>
