<svg width="54" height="54" viewBox="0 0 54 54" fill="none" xmlns="http://www.w3.org/2000/svg">
<rect width="54" height="54" rx="8" fill="#DEFDFF"/>
<path d="M22 22H20.2067C18.4713 22 17.0979 23.468 17.2133 25.1996L17.8133 34.1996C17.9184 35.7755 19.2273 37 20.8067 37H33.1934C34.7728 37 36.0817 35.7755 36.1867 34.1996L36.7867 25.1996C36.9022 23.468 35.5288 22 33.7934 22H32V24C32 24.5523 31.5523 25 31 25C30.4477 25 30 24.5523 30 24V22H24V24C24 24.5523 23.5523 25 23 25C22.4477 25 22 24.5523 22 24V22Z" fill="#20B0B9"/>
<path fill-rule="evenodd" clip-rule="evenodd" d="M22 22C22 19.2386 24.2386 17 27 17C29.7614 17 32 19.2386 32 22H30C30 20.3431 28.6569 19 27 19C25.3431 19 24 20.3431 24 22H22Z" fill="#20B0B9"/>
</svg>
