<svg width="28" height="28" viewBox="0 0 28 28" fill="none" xmlns="http://www.w3.org/2000/svg">
<g id="vuesax/linear/notification-bing">
<g id="notification-bing">
<path id="Vector" d="M14 7.51334V11.3983" stroke="black" stroke-width="1.5" stroke-miterlimit="10" stroke-linecap="round"/>
<path id="Vector_2" d="M14.0232 2.33334C9.72988 2.33334 6.25321 5.81001 6.25321 10.1033V12.5533C6.25321 13.3467 5.92655 14.5367 5.51821 15.2133L4.03655 17.6867C3.12655 19.215 3.75655 20.9183 5.43655 21.4783C11.0132 23.3333 17.0449 23.3333 22.6215 21.4783C24.1965 20.9533 24.8732 19.11 24.0215 17.6867L22.5399 15.2133C22.1315 14.5367 21.8049 13.335 21.8049 12.5533V10.1033C21.7932 5.83334 18.2932 2.33334 14.0232 2.33334Z" stroke="black" stroke-width="1.5" stroke-miterlimit="10" stroke-linecap="round"/>
<path id="Vector_3" d="M17.8852 21.9567C17.8852 24.0917 16.1352 25.8417 14.0002 25.8417C12.9386 25.8417 11.9586 25.3983 11.2586 24.6983C10.5586 23.9983 10.1152 23.0183 10.1152 21.9567" stroke="black" stroke-width="1.5" stroke-miterlimit="10"/>
</g>
</g>
</svg>
