<svg width="217" height="512" viewBox="0 0 217 512" fill="none" xmlns="http://www.w3.org/2000/svg">
<rect width="215" height="40" rx="4" fill="#F97C7C"/>
<path d="M26.0698 10.82L19.1398 16.37C18.3598 16.99 17.8598 18.3 18.0298 19.28L19.3598 27.24C19.5998 28.66 20.9598 29.81 22.3998 29.81H33.5998C35.0298 29.81 36.3998 28.65 36.6398 27.24L37.9698 19.28C38.1298 18.3 37.6298 16.99 36.8598 16.37L29.9298 10.83C28.8598 9.97004 27.1298 9.97003 26.0698 10.82Z" stroke="#F4F4F4" stroke-width="1.5" stroke-linecap="round" stroke-linejoin="round"/>
<path d="M28 23.5C29.3807 23.5 30.5 22.3807 30.5 21C30.5 19.6193 29.3807 18.5 28 18.5C26.6193 18.5 25.5 19.6193 25.5 21C25.5 22.3807 26.6193 23.5 28 23.5Z" stroke="#F4F4F4" stroke-width="1.5" stroke-linecap="round" stroke-linejoin="round"/>
<path d="M59.624 20.192C59.624 21.04 59.48 21.8213 59.192 22.536C58.9093 23.2453 58.5067 23.856 57.984 24.368C57.4667 24.88 56.8427 25.28 56.112 25.568C55.3813 25.856 54.5707 26 53.68 26H49.216V14.392H53.68C54.5707 14.392 55.3813 14.536 56.112 14.824C56.8427 15.112 57.4667 15.5147 57.984 16.032C58.5067 16.544 58.9093 17.1547 59.192 17.864C59.48 18.5733 59.624 19.3493 59.624 20.192ZM57.16 20.192C57.16 19.584 57.08 19.0373 56.92 18.552C56.76 18.0667 56.5307 17.656 56.232 17.32C55.9333 16.984 55.568 16.7253 55.136 16.544C54.7093 16.3627 54.224 16.272 53.68 16.272H51.632V24.12H53.68C54.224 24.12 54.7093 24.032 55.136 23.856C55.568 23.6747 55.9333 23.416 56.232 23.08C56.5307 22.7387 56.76 22.3253 56.92 21.84C57.08 21.3547 57.16 20.8053 57.16 20.192ZM65.2084 22.552C64.6697 22.5787 64.2217 22.6267 63.8644 22.696C63.507 22.76 63.2217 22.8453 63.0084 22.952C62.8004 23.0587 62.651 23.1813 62.5604 23.32C62.475 23.4533 62.4324 23.6 62.4324 23.76C62.4324 24.08 62.5204 24.3067 62.6964 24.44C62.8777 24.5733 63.1284 24.64 63.4484 24.64C63.8164 24.64 64.1337 24.576 64.4004 24.448C64.6724 24.3147 64.9417 24.1093 65.2084 23.832V22.552ZM60.7124 18.896C61.1977 18.4587 61.7337 18.1333 62.3204 17.92C62.907 17.7013 63.5417 17.592 64.2244 17.592C64.715 17.592 65.1524 17.672 65.5364 17.832C65.9257 17.992 66.2537 18.216 66.5204 18.504C66.7924 18.7867 67.0004 19.1253 67.1444 19.52C67.2884 19.9147 67.3604 20.3467 67.3604 20.816V26H66.3524C66.1444 26 65.9844 25.9707 65.8724 25.912C65.7657 25.8533 65.6777 25.7307 65.6084 25.544L65.4324 25.016C65.2244 25.1973 65.0217 25.3573 64.8244 25.496C64.6324 25.6347 64.4324 25.752 64.2244 25.848C64.0164 25.9387 63.7924 26.008 63.5524 26.056C63.3177 26.104 63.0537 26.128 62.7604 26.128C62.3977 26.128 62.067 26.08 61.7684 25.984C61.4697 25.888 61.211 25.7467 60.9924 25.56C60.779 25.368 60.6137 25.1307 60.4964 24.848C60.379 24.5653 60.3204 24.24 60.3204 23.872C60.3204 23.568 60.3977 23.264 60.5524 22.96C60.707 22.656 60.971 22.3813 61.3444 22.136C61.723 21.8853 62.2244 21.68 62.8484 21.52C63.4777 21.3547 64.2644 21.2613 65.2084 21.24V20.816C65.2084 20.2987 65.099 19.92 64.8804 19.68C64.6617 19.4347 64.347 19.312 63.9364 19.312C63.6324 19.312 63.379 19.3493 63.1764 19.424C62.9737 19.4933 62.795 19.5707 62.6404 19.656C62.491 19.736 62.3497 19.8133 62.2164 19.888C62.083 19.9573 61.9284 19.992 61.7524 19.992C61.5977 19.992 61.467 19.9547 61.3604 19.88C61.259 19.8 61.1737 19.7067 61.1044 19.6L60.7124 18.896ZM74.2119 19.448C74.1532 19.5387 74.0919 19.6053 74.0279 19.648C73.9692 19.6853 73.8865 19.704 73.7799 19.704C73.6732 19.704 73.5639 19.6773 73.4519 19.624C73.3399 19.5707 73.2145 19.5147 73.0759 19.456C72.9372 19.392 72.7772 19.3333 72.5959 19.28C72.4199 19.2267 72.2145 19.2 71.9799 19.2C71.6225 19.2 71.3452 19.2747 71.1479 19.424C70.9505 19.568 70.8519 19.76 70.8519 20C70.8519 20.1653 70.9079 20.304 71.0199 20.416C71.1319 20.528 71.2785 20.6267 71.4599 20.712C71.6465 20.792 71.8572 20.8693 72.0919 20.944C72.3265 21.0133 72.5665 21.0907 72.8119 21.176C73.0625 21.2613 73.3052 21.36 73.5399 21.472C73.7745 21.584 73.9825 21.7253 74.1639 21.896C74.3505 22.0613 74.4999 22.264 74.6119 22.504C74.7239 22.7387 74.7799 23.024 74.7799 23.36C74.7799 23.76 74.7052 24.1307 74.5559 24.472C74.4119 24.808 74.1985 25.0987 73.9159 25.344C73.6332 25.5893 73.2812 25.7813 72.8599 25.92C72.4385 26.0587 71.9532 26.128 71.4039 26.128C71.1212 26.128 70.8412 26.1013 70.5639 26.048C70.2865 26 70.0225 25.9307 69.7719 25.84C69.5212 25.744 69.2865 25.6347 69.0679 25.512C68.8492 25.3893 68.6599 25.256 68.4999 25.112L69.0119 24.288C69.0705 24.192 69.1425 24.1173 69.2279 24.064C69.3185 24.0107 69.4332 23.984 69.5719 23.984C69.7052 23.984 69.8279 24.0187 69.9399 24.088C70.0519 24.152 70.1772 24.224 70.3159 24.304C70.4545 24.3787 70.6172 24.4507 70.8039 24.52C70.9959 24.584 71.2332 24.616 71.5159 24.616C71.7292 24.616 71.9132 24.592 72.0679 24.544C72.2225 24.496 72.3479 24.432 72.4439 24.352C72.5399 24.2667 72.6092 24.1733 72.6519 24.072C72.6999 23.9653 72.7239 23.856 72.7239 23.744C72.7239 23.5627 72.6652 23.416 72.5479 23.304C72.4359 23.1867 72.2865 23.0853 72.0999 23C71.9185 22.9147 71.7079 22.8373 71.4679 22.768C71.2279 22.6987 70.9825 22.6213 70.7319 22.536C70.4865 22.4507 70.2439 22.3493 70.0039 22.232C69.7692 22.1147 69.5585 21.968 69.3719 21.792C69.1905 21.6107 69.0412 21.3893 68.9239 21.128C68.8119 20.8667 68.7559 20.5493 68.7559 20.176C68.7559 19.8347 68.8225 19.512 68.9559 19.208C69.0892 18.8987 69.2892 18.6267 69.5559 18.392C69.8225 18.1573 70.1532 17.9707 70.5479 17.832C70.9479 17.6933 71.4092 17.624 71.9319 17.624C72.5185 17.624 73.0519 17.72 73.5319 17.912C74.0119 18.104 74.4065 18.3547 74.7159 18.664L74.2119 19.448ZM78.37 18.56C78.5247 18.4213 78.6847 18.296 78.85 18.184C79.0207 18.0667 79.1993 17.968 79.386 17.888C79.578 17.8027 79.7807 17.7387 79.994 17.696C80.2127 17.648 80.4473 17.624 80.698 17.624C81.146 17.624 81.5433 17.7013 81.89 17.856C82.2367 18.0107 82.5273 18.2267 82.762 18.504C83.002 18.7813 83.1807 19.112 83.298 19.496C83.4207 19.88 83.482 20.3013 83.482 20.76V26H81.282V20.76C81.282 20.3013 81.1753 19.9467 80.962 19.696C80.7487 19.44 80.434 19.312 80.018 19.312C79.7087 19.312 79.418 19.3787 79.146 19.512C78.874 19.6453 78.6153 19.832 78.37 20.072V26H76.162V14.072H78.37V18.56ZM87.4481 23.824C87.6561 24.064 87.8801 24.232 88.1201 24.328C88.3655 24.424 88.6188 24.472 88.8801 24.472C89.1521 24.472 89.3975 24.424 89.6161 24.328C89.8401 24.2267 90.0321 24.0693 90.1921 23.856C90.3521 23.6373 90.4748 23.3547 90.5601 23.008C90.6455 22.6613 90.6881 22.2427 90.6881 21.752C90.6881 21.3147 90.6535 20.944 90.5841 20.64C90.5148 20.3307 90.4108 20.0773 90.2721 19.88C90.1388 19.6827 89.9735 19.5387 89.7761 19.448C89.5788 19.3573 89.3495 19.312 89.0881 19.312C88.7415 19.312 88.4401 19.3893 88.1841 19.544C87.9335 19.6933 87.6881 19.9147 87.4481 20.208V23.824ZM87.4481 18.704C87.7735 18.3787 88.1335 18.1173 88.5281 17.92C88.9228 17.7227 89.3655 17.624 89.8561 17.624C90.3308 17.624 90.7575 17.72 91.1361 17.912C91.5201 18.0987 91.8455 18.368 92.1121 18.72C92.3841 19.072 92.5921 19.4987 92.7361 20C92.8855 20.496 92.9601 21.0533 92.9601 21.672C92.9601 22.3387 92.8748 22.9467 92.7041 23.496C92.5388 24.04 92.3015 24.5067 91.9921 24.896C91.6828 25.2853 91.3121 25.5867 90.8801 25.8C90.4535 26.0133 89.9761 26.12 89.4481 26.12C89.1921 26.12 88.9628 26.0933 88.7601 26.04C88.5575 25.992 88.3708 25.9227 88.2001 25.832C88.0295 25.7413 87.8721 25.6347 87.7281 25.512C87.5841 25.384 87.4481 25.2427 87.3201 25.088L87.2321 25.584C87.1948 25.7387 87.1335 25.848 87.0481 25.912C86.9628 25.9707 86.8481 26 86.7041 26H85.2401V14.072H87.4481V18.704ZM98.1008 17.624C98.7194 17.624 99.2821 17.7227 99.7888 17.92C100.295 18.1173 100.73 18.4 101.093 18.768C101.455 19.1307 101.735 19.5733 101.933 20.096C102.13 20.6187 102.229 21.208 102.229 21.864C102.229 22.52 102.13 23.112 101.933 23.64C101.735 24.1627 101.455 24.608 101.093 24.976C100.73 25.344 100.295 25.6267 99.7888 25.824C99.2821 26.0213 98.7194 26.12 98.1008 26.12C97.4768 26.12 96.9088 26.0213 96.3968 25.824C95.8901 25.6267 95.4554 25.344 95.0928 24.976C94.7301 24.608 94.4474 24.1627 94.2448 23.64C94.0474 23.112 93.9488 22.52 93.9488 21.864C93.9488 21.208 94.0474 20.6187 94.2448 20.096C94.4474 19.5733 94.7301 19.1307 95.0928 18.768C95.4554 18.4 95.8901 18.1173 96.3968 17.92C96.9088 17.7227 97.4768 17.624 98.1008 17.624ZM98.1008 24.464C98.7301 24.464 99.1968 24.248 99.5008 23.816C99.8048 23.3787 99.9568 22.7307 99.9568 21.872C99.9568 21.0187 99.8048 20.376 99.5008 19.944C99.1968 19.5067 98.7301 19.288 98.1008 19.288C97.4554 19.288 96.9808 19.5067 96.6768 19.944C96.3728 20.376 96.2208 21.0187 96.2208 21.872C96.2208 22.7307 96.3728 23.3787 96.6768 23.816C96.9808 24.248 97.4554 24.464 98.1008 24.464ZM107.927 22.552C107.388 22.5787 106.94 22.6267 106.583 22.696C106.226 22.76 105.94 22.8453 105.727 22.952C105.519 23.0587 105.37 23.1813 105.279 23.32C105.194 23.4533 105.151 23.6 105.151 23.76C105.151 24.08 105.239 24.3067 105.415 24.44C105.596 24.5733 105.847 24.64 106.167 24.64C106.535 24.64 106.852 24.576 107.119 24.448C107.391 24.3147 107.66 24.1093 107.927 23.832V22.552ZM103.431 18.896C103.916 18.4587 104.452 18.1333 105.039 17.92C105.626 17.7013 106.26 17.592 106.943 17.592C107.434 17.592 107.871 17.672 108.255 17.832C108.644 17.992 108.972 18.216 109.239 18.504C109.511 18.7867 109.719 19.1253 109.863 19.52C110.007 19.9147 110.079 20.3467 110.079 20.816V26H109.071C108.863 26 108.703 25.9707 108.591 25.912C108.484 25.8533 108.396 25.7307 108.327 25.544L108.151 25.016C107.943 25.1973 107.74 25.3573 107.543 25.496C107.351 25.6347 107.151 25.752 106.943 25.848C106.735 25.9387 106.511 26.008 106.271 26.056C106.036 26.104 105.772 26.128 105.479 26.128C105.116 26.128 104.786 26.08 104.487 25.984C104.188 25.888 103.93 25.7467 103.711 25.56C103.498 25.368 103.332 25.1307 103.215 24.848C103.098 24.5653 103.039 24.24 103.039 23.872C103.039 23.568 103.116 23.264 103.271 22.96C103.426 22.656 103.69 22.3813 104.063 22.136C104.442 21.8853 104.943 21.68 105.567 21.52C106.196 21.3547 106.983 21.2613 107.927 21.24V20.816C107.927 20.2987 107.818 19.92 107.599 19.68C107.38 19.4347 107.066 19.312 106.655 19.312C106.351 19.312 106.098 19.3493 105.895 19.424C105.692 19.4933 105.514 19.5707 105.359 19.656C105.21 19.736 105.068 19.8133 104.935 19.888C104.802 19.9573 104.647 19.992 104.471 19.992C104.316 19.992 104.186 19.9547 104.079 19.88C103.978 19.8 103.892 19.7067 103.823 19.6L103.431 18.896ZM113.875 19.112C114.136 18.6427 114.437 18.272 114.779 18C115.12 17.728 115.52 17.592 115.979 17.592C116.352 17.592 116.656 17.68 116.891 17.856L116.747 19.488C116.72 19.5947 116.677 19.6693 116.619 19.712C116.565 19.7493 116.491 19.768 116.395 19.768C116.309 19.768 116.187 19.7573 116.027 19.736C115.867 19.7093 115.717 19.696 115.579 19.696C115.376 19.696 115.195 19.7253 115.035 19.784C114.88 19.8427 114.741 19.9253 114.619 20.032C114.496 20.1387 114.384 20.2693 114.283 20.424C114.187 20.5787 114.096 20.7547 114.011 20.952V26H111.803V17.752H113.107C113.331 17.752 113.485 17.792 113.571 17.872C113.656 17.952 113.717 18.0907 113.755 18.288L113.875 19.112ZM122.758 19.896C122.55 19.656 122.323 19.488 122.078 19.392C121.838 19.296 121.582 19.248 121.31 19.248C121.043 19.248 120.801 19.2987 120.582 19.4C120.363 19.5013 120.174 19.6613 120.014 19.88C119.859 20.0933 119.739 20.368 119.654 20.704C119.569 21.04 119.526 21.44 119.526 21.904C119.526 22.3627 119.561 22.752 119.63 23.072C119.699 23.392 119.798 23.6507 119.926 23.848C120.059 24.0453 120.219 24.1893 120.406 24.28C120.593 24.3653 120.801 24.408 121.03 24.408C121.419 24.408 121.745 24.3307 122.006 24.176C122.273 24.0213 122.523 23.8027 122.758 23.52V19.896ZM124.966 14.072V26H123.606C123.323 26 123.142 25.872 123.062 25.616L122.878 24.896C122.713 25.0773 122.537 25.2427 122.35 25.392C122.169 25.5413 121.971 25.672 121.758 25.784C121.545 25.8907 121.315 25.9733 121.07 26.032C120.825 26.0907 120.558 26.12 120.27 26.12C119.827 26.12 119.422 26.0267 119.054 25.84C118.686 25.6533 118.366 25.3813 118.094 25.024C117.827 24.6613 117.619 24.2187 117.47 23.696C117.321 23.1733 117.246 22.576 117.246 21.904C117.246 21.2907 117.329 20.72 117.494 20.192C117.665 19.664 117.905 19.208 118.214 18.824C118.523 18.44 118.897 18.1387 119.334 17.92C119.771 17.7013 120.257 17.592 120.79 17.592C121.238 17.592 121.614 17.6587 121.918 17.792C122.227 17.9253 122.507 18.1067 122.758 18.336V14.072H124.966Z" fill="white"/>
<rect y="59" width="215" height="40" rx="4" fill="white"/>
<path d="M22.8799 85.15V83.08" stroke="#7C7C7C" stroke-width="1.5" stroke-linecap="round"/>
<path d="M28 85.15V81.01" stroke="#7C7C7C" stroke-width="1.5" stroke-linecap="round"/>
<path d="M33.1201 85.15V78.93" stroke="#7C7C7C" stroke-width="1.5" stroke-linecap="round"/>
<path d="M33.1199 72.85L32.6599 73.39C30.1099 76.37 26.6899 78.48 22.8799 79.43" stroke="#7C7C7C" stroke-width="1.5" stroke-linecap="round"/>
<path d="M30.1899 72.85H33.1199V75.77" stroke="#7C7C7C" stroke-width="1.5" stroke-linecap="round" stroke-linejoin="round"/>
<path d="M25 89H31C36 89 38 87 38 82V76C38 71 36 69 31 69H25C20 69 18 71 18 76V82C18 87 20 89 25 89Z" stroke="#7C7C7C" stroke-width="1.5" stroke-linecap="round" stroke-linejoin="round"/>
<path d="M55.552 80.744L53.752 76.08C53.6987 75.9413 53.6427 75.7813 53.584 75.6C53.5253 75.4133 53.4693 75.216 53.416 75.008C53.304 75.44 53.1893 75.8 53.072 76.088L51.272 80.744H55.552ZM58.784 85H57.584C57.4453 85 57.3333 84.9653 57.248 84.896C57.1627 84.8267 57.0987 84.7387 57.056 84.632L55.984 81.864H50.84L49.768 84.632C49.736 84.728 49.6747 84.8133 49.584 84.888C49.4933 84.9627 49.3813 85 49.248 85H48.048L52.632 73.536H54.2L58.784 85ZM61.2689 78.072C61.4449 77.8747 61.6315 77.696 61.8289 77.536C62.0262 77.376 62.2342 77.24 62.4529 77.128C62.6769 77.0107 62.9115 76.9227 63.1569 76.864C63.4075 76.8 63.6769 76.768 63.9649 76.768C64.4075 76.768 64.7969 76.8427 65.1329 76.992C65.4742 77.136 65.7569 77.344 65.9809 77.616C66.2102 77.8827 66.3835 78.2053 66.5009 78.584C66.6182 78.9627 66.6769 79.3813 66.6769 79.84V85H65.2449V79.84C65.2449 79.2267 65.1035 78.752 64.8209 78.416C64.5435 78.0747 64.1195 77.904 63.5489 77.904C63.1275 77.904 62.7329 78.0053 62.3649 78.208C62.0022 78.4107 61.6662 78.6853 61.3569 79.032V85H59.9249V76.896H60.7809C60.9835 76.896 61.1089 76.9947 61.1569 77.192L61.2689 78.072ZM73.2388 81.352C72.5828 81.3733 72.0228 81.4267 71.5588 81.512C71.1001 81.592 70.7241 81.6987 70.4308 81.832C70.1428 81.9653 69.9321 82.1227 69.7988 82.304C69.6708 82.4853 69.6068 82.688 69.6068 82.912C69.6068 83.1253 69.6414 83.3093 69.7108 83.464C69.7801 83.6187 69.8734 83.7467 69.9908 83.848C70.1134 83.944 70.2548 84.016 70.4148 84.064C70.5801 84.1067 70.7561 84.128 70.9428 84.128C71.1934 84.128 71.4228 84.104 71.6308 84.056C71.8388 84.0027 72.0334 83.928 72.2148 83.832C72.4014 83.736 72.5774 83.6213 72.7428 83.488C72.9134 83.3547 73.0788 83.2027 73.2388 83.032V81.352ZM68.6388 78.04C69.0868 77.608 69.5694 77.2853 70.0868 77.072C70.6041 76.8587 71.1774 76.752 71.8068 76.752C72.2601 76.752 72.6628 76.8267 73.0148 76.976C73.3668 77.1253 73.6628 77.3333 73.9028 77.6C74.1428 77.8667 74.3241 78.1893 74.4468 78.568C74.5694 78.9467 74.6308 79.3627 74.6308 79.816V85H73.9988C73.8601 85 73.7534 84.9787 73.6788 84.936C73.6041 84.888 73.5454 84.7973 73.5028 84.664L73.3428 83.896C73.1294 84.0933 72.9214 84.2693 72.7188 84.424C72.5161 84.5733 72.3028 84.7013 72.0788 84.808C71.8548 84.9093 71.6148 84.9867 71.3588 85.04C71.1081 85.0987 70.8281 85.128 70.5188 85.128C70.2041 85.128 69.9081 85.0853 69.6308 85C69.3534 84.9093 69.1108 84.776 68.9028 84.6C68.7001 84.424 68.5374 84.2027 68.4148 83.936C68.2974 83.664 68.2388 83.344 68.2388 82.976C68.2388 82.656 68.3268 82.3493 68.5028 82.056C68.6788 81.7573 68.9641 81.4933 69.3588 81.264C69.7534 81.0347 70.2681 80.848 70.9028 80.704C71.5374 80.5547 72.3161 80.4693 73.2388 80.448V79.816C73.2388 79.1867 73.1028 78.712 72.8308 78.392C72.5588 78.0667 72.1614 77.904 71.6388 77.904C71.2868 77.904 70.9908 77.9493 70.7508 78.04C70.5161 78.1253 70.3108 78.224 70.1348 78.336C69.9641 78.4427 69.8148 78.5413 69.6868 78.632C69.5641 78.7173 69.4414 78.76 69.3188 78.76C69.2228 78.76 69.1401 78.736 69.0708 78.688C69.0014 78.6347 68.9428 78.5707 68.8947 78.496L68.6388 78.04ZM78.2719 73.216V85H76.8479V73.216H78.2719ZM87.5731 76.896L83.0531 87.392C83.0051 87.4987 82.9438 87.584 82.8691 87.648C82.7998 87.712 82.6905 87.744 82.5411 87.744H81.4851L82.9651 84.528L79.6211 76.896H80.8531C80.9758 76.896 81.0718 76.928 81.1411 76.992C81.2158 77.0507 81.2665 77.1173 81.2931 77.192L83.4611 82.296C83.5465 82.52 83.6185 82.7547 83.6771 83C83.7518 82.7493 83.8318 82.512 83.9171 82.288L86.0211 77.192C86.0531 77.1067 86.1065 77.0373 86.1811 76.984C86.2611 76.9253 86.3491 76.896 86.4451 76.896H87.5731ZM96.3511 85H94.9271V78.088H90.7511V82.952C90.7511 83.2933 90.8338 83.5467 90.9991 83.712C91.1645 83.8773 91.3778 83.96 91.6391 83.96C91.7885 83.96 91.9165 83.9413 92.0231 83.904C92.1351 83.8613 92.2311 83.816 92.3111 83.768C92.3911 83.72 92.4578 83.6773 92.5111 83.64C92.5698 83.5973 92.6205 83.576 92.6631 83.576C92.7378 83.576 92.8045 83.6213 92.8631 83.712L93.2791 84.392C93.0338 84.6213 92.7378 84.8027 92.3911 84.936C92.0445 85.064 91.6871 85.128 91.3191 85.128C90.6791 85.128 90.1858 84.9493 89.8391 84.592C89.4978 84.2347 89.3271 83.72 89.3271 83.048V78.088H88.3511C88.2658 78.088 88.1938 78.064 88.1351 78.016C88.0765 77.9627 88.0471 77.8827 88.0471 77.776V77.208L89.3751 77.032L89.7031 74.536C89.7191 74.456 89.7538 74.392 89.8071 74.344C89.8658 74.2907 89.9405 74.264 90.0311 74.264H90.7511V77.056H96.3511V85ZM96.7031 74.296C96.7031 74.4347 96.6738 74.5653 96.6151 74.688C96.5618 74.8053 96.4871 74.9093 96.3911 75C96.3005 75.0907 96.1938 75.1627 96.0711 75.216C95.9485 75.2693 95.8178 75.296 95.6791 75.296C95.5405 75.296 95.4098 75.2693 95.2871 75.216C95.1698 75.1627 95.0658 75.0907 94.9751 75C94.8845 74.9093 94.8125 74.8053 94.7591 74.688C94.7058 74.5653 94.6791 74.4347 94.6791 74.296C94.6791 74.1573 94.7058 74.0267 94.7591 73.904C94.8125 73.776 94.8845 73.6667 94.9751 73.576C95.0658 73.48 95.1698 73.4053 95.2871 73.352C95.4098 73.2987 95.5405 73.272 95.6791 73.272C95.8178 73.272 95.9485 73.2987 96.0711 73.352C96.1938 73.4053 96.3005 73.48 96.3911 73.576C96.4871 73.6667 96.5618 73.776 96.6151 73.904C96.6738 74.0267 96.7031 74.1573 96.7031 74.296ZM104.331 78.336C104.288 78.3947 104.245 78.44 104.203 78.472C104.16 78.504 104.101 78.52 104.027 78.52C103.947 78.52 103.859 78.488 103.763 78.424C103.667 78.3547 103.547 78.28 103.403 78.2C103.264 78.12 103.091 78.048 102.883 77.984C102.68 77.9147 102.429 77.88 102.131 77.88C101.731 77.88 101.379 77.952 101.075 78.096C100.771 78.2347 100.515 78.4373 100.307 78.704C100.104 78.9707 99.9492 79.2933 99.8425 79.672C99.7412 80.0507 99.6905 80.4747 99.6905 80.944C99.6905 81.4347 99.7465 81.872 99.8585 82.256C99.9705 82.6347 100.128 82.9547 100.331 83.216C100.539 83.472 100.787 83.6693 101.075 83.808C101.368 83.9413 101.696 84.008 102.059 84.008C102.405 84.008 102.691 83.968 102.915 83.888C103.139 83.8027 103.323 83.7093 103.467 83.608C103.616 83.5067 103.739 83.416 103.835 83.336C103.936 83.2507 104.035 83.208 104.131 83.208C104.248 83.208 104.339 83.2533 104.403 83.344L104.803 83.864C104.627 84.0827 104.427 84.2693 104.203 84.424C103.979 84.5787 103.736 84.7093 103.475 84.816C103.219 84.9173 102.949 84.992 102.667 85.04C102.384 85.088 102.096 85.112 101.803 85.112C101.296 85.112 100.824 85.0187 100.387 84.832C99.9545 84.6453 99.5785 84.376 99.2585 84.024C98.9385 83.6667 98.6878 83.2293 98.5065 82.712C98.3252 82.1947 98.2345 81.6053 98.2345 80.944C98.2345 80.3413 98.3172 79.784 98.4825 79.272C98.6532 78.76 98.8985 78.32 99.2185 77.952C99.5438 77.5787 99.9412 77.288 100.411 77.08C100.885 76.872 101.429 76.768 102.043 76.768C102.613 76.768 103.115 76.8613 103.547 77.048C103.984 77.2293 104.371 77.488 104.707 77.824L104.331 78.336ZM111.051 78.232C110.987 78.3493 110.888 78.408 110.755 78.408C110.675 78.408 110.584 78.3787 110.483 78.32C110.382 78.2613 110.256 78.1973 110.107 78.128C109.963 78.0533 109.79 77.9867 109.587 77.928C109.384 77.864 109.144 77.832 108.867 77.832C108.627 77.832 108.411 77.864 108.219 77.928C108.027 77.9867 107.862 78.0693 107.723 78.176C107.59 78.2827 107.486 78.408 107.411 78.552C107.342 78.6907 107.307 78.8427 107.307 79.008C107.307 79.216 107.366 79.3893 107.483 79.528C107.606 79.6667 107.766 79.7867 107.963 79.888C108.16 79.9893 108.384 80.08 108.635 80.16C108.886 80.2347 109.142 80.3173 109.403 80.408C109.67 80.4933 109.928 80.5893 110.179 80.696C110.43 80.8027 110.654 80.936 110.851 81.096C111.048 81.256 111.206 81.4533 111.323 81.688C111.446 81.9173 111.507 82.1947 111.507 82.52C111.507 82.8933 111.44 83.24 111.307 83.56C111.174 83.8747 110.976 84.1493 110.715 84.384C110.454 84.6133 110.134 84.7947 109.755 84.928C109.376 85.0613 108.939 85.128 108.443 85.128C107.878 85.128 107.366 85.0373 106.907 84.856C106.448 84.6693 106.059 84.432 105.739 84.144L106.075 83.6C106.118 83.5307 106.168 83.4773 106.227 83.44C106.286 83.4027 106.36 83.384 106.451 83.384C106.547 83.384 106.648 83.4213 106.755 83.496C106.862 83.5707 106.99 83.6533 107.139 83.744C107.294 83.8347 107.48 83.9173 107.699 83.992C107.918 84.0667 108.19 84.104 108.515 84.104C108.792 84.104 109.035 84.0693 109.243 84C109.451 83.9253 109.624 83.8267 109.763 83.704C109.902 83.5813 110.003 83.44 110.067 83.28C110.136 83.12 110.171 82.9493 110.171 82.768C110.171 82.544 110.11 82.36 109.987 82.216C109.87 82.0667 109.712 81.9413 109.515 81.84C109.318 81.7333 109.091 81.6427 108.835 81.568C108.584 81.488 108.326 81.4053 108.059 81.32C107.798 81.2347 107.539 81.1387 107.283 81.032C107.032 80.92 106.808 80.7813 106.611 80.616C106.414 80.4507 106.254 80.248 106.131 80.008C106.014 79.7627 105.955 79.4667 105.955 79.12C105.955 78.8107 106.019 78.5147 106.147 78.232C106.275 77.944 106.462 77.6933 106.707 77.48C106.952 77.2613 107.254 77.088 107.611 76.96C107.968 76.832 108.376 76.768 108.835 76.768C109.368 76.768 109.846 76.8533 110.267 77.024C110.694 77.1893 111.062 77.4187 111.371 77.712L111.051 78.232Z" fill="#7C7C7C"/>
<rect y="118" width="215" height="40" rx="4" fill="white"/>
<path d="M19.1699 133.44L27.9999 138.55L36.7699 133.47" stroke="#7C7C7C" stroke-width="1.5" stroke-linecap="round" stroke-linejoin="round"/>
<path d="M28 147.61V138.54" stroke="#7C7C7C" stroke-width="1.5" stroke-linecap="round" stroke-linejoin="round"/>
<path d="M25.9301 128.48L20.5901 131.44C19.3801 132.11 18.3901 133.79 18.3901 135.17V140.82C18.3901 142.2 19.3801 143.88 20.5901 144.55L25.9301 147.52C27.0701 148.15 28.9401 148.15 30.0801 147.52L35.4201 144.55C36.6301 143.88 37.6201 142.2 37.6201 140.82V135.17C37.6201 133.79 36.6301 132.11 35.4201 131.44L30.0801 128.47C28.9301 127.84 27.0701 127.84 25.9301 128.48Z" stroke="#7C7C7C" stroke-width="1.5" stroke-linecap="round" stroke-linejoin="round"/>
<path d="M52.848 138.48C53.2907 138.48 53.68 138.421 54.016 138.304C54.3573 138.187 54.6427 138.024 54.872 137.816C55.1067 137.603 55.2827 137.349 55.4 137.056C55.5173 136.763 55.576 136.44 55.576 136.088C55.576 135.357 55.3493 134.787 54.896 134.376C54.448 133.965 53.7653 133.76 52.848 133.76H51.008V138.48H52.848ZM52.848 132.536C53.5733 132.536 54.2027 132.621 54.736 132.792C55.2747 132.957 55.72 133.195 56.072 133.504C56.424 133.813 56.6853 134.187 56.856 134.624C57.032 135.061 57.12 135.549 57.12 136.088C57.12 136.621 57.0267 137.109 56.84 137.552C56.6533 137.995 56.3787 138.376 56.016 138.696C55.6587 139.016 55.2133 139.267 54.68 139.448C54.152 139.624 53.5413 139.712 52.848 139.712H51.008V144H49.464V132.536H52.848ZM59.9331 137.52C60.1891 136.965 60.5038 136.533 60.8771 136.224C61.2505 135.909 61.7065 135.752 62.2451 135.752C62.4158 135.752 62.5785 135.771 62.7331 135.808C62.8931 135.845 63.0345 135.904 63.1571 135.984L63.0531 137.048C63.0211 137.181 62.9411 137.248 62.8131 137.248C62.7385 137.248 62.6291 137.232 62.4851 137.2C62.3411 137.168 62.1785 137.152 61.9971 137.152C61.7411 137.152 61.5118 137.189 61.3091 137.264C61.1118 137.339 60.9331 137.451 60.7731 137.6C60.6185 137.744 60.4771 137.925 60.3491 138.144C60.2265 138.357 60.1145 138.603 60.0131 138.88V144H58.5811V135.896H59.3971C59.5518 135.896 59.6585 135.925 59.7171 135.984C59.7758 136.043 59.8158 136.144 59.8371 136.288L59.9331 137.52ZM67.4971 135.768C68.0891 135.768 68.6225 135.867 69.0971 136.064C69.5718 136.261 69.9771 136.541 70.3131 136.904C70.6491 137.267 70.9051 137.707 71.0811 138.224C71.2625 138.736 71.3531 139.309 71.3531 139.944C71.3531 140.584 71.2625 141.16 71.0811 141.672C70.9051 142.184 70.6491 142.621 70.3131 142.984C69.9771 143.347 69.5718 143.627 69.0971 143.824C68.6225 144.016 68.0891 144.112 67.4971 144.112C66.8998 144.112 66.3611 144.016 65.8811 143.824C65.4065 143.627 65.0011 143.347 64.6651 142.984C64.3291 142.621 64.0705 142.184 63.8891 141.672C63.7131 141.16 63.6251 140.584 63.6251 139.944C63.6251 139.309 63.7131 138.736 63.8891 138.224C64.0705 137.707 64.3291 137.267 64.6651 136.904C65.0011 136.541 65.4065 136.261 65.8811 136.064C66.3611 135.867 66.8998 135.768 67.4971 135.768ZM67.4971 143C68.2971 143 68.8945 142.733 69.2891 142.2C69.6838 141.661 69.8811 140.912 69.8811 139.952C69.8811 138.987 69.6838 138.235 69.2891 137.696C68.8945 137.157 68.2971 136.888 67.4971 136.888C67.0918 136.888 66.7371 136.957 66.4331 137.096C66.1345 137.235 65.8838 137.435 65.6811 137.696C65.4838 137.957 65.3345 138.28 65.2331 138.664C65.1371 139.043 65.0891 139.472 65.0891 139.952C65.0891 140.912 65.2865 141.661 65.6811 142.2C66.0811 142.733 66.6865 143 67.4971 143ZM78.4393 137.824C78.1726 137.467 77.8846 137.219 77.5753 137.08C77.2659 136.936 76.9193 136.864 76.5353 136.864C75.7833 136.864 75.2046 137.133 74.7993 137.672C74.3939 138.211 74.1913 138.979 74.1913 139.976C74.1913 140.504 74.2366 140.957 74.3273 141.336C74.4179 141.709 74.5513 142.019 74.7273 142.264C74.9033 142.504 75.1193 142.68 75.3753 142.792C75.6313 142.904 75.9219 142.96 76.2473 142.96C76.7166 142.96 77.1246 142.853 77.4713 142.64C77.8233 142.427 78.1459 142.125 78.4393 141.736V137.824ZM79.8633 132.216V144H79.0153C78.8126 144 78.6846 143.901 78.6313 143.704L78.5033 142.72C78.1566 143.136 77.7619 143.472 77.3193 143.728C76.8766 143.984 76.3646 144.112 75.7833 144.112C75.3193 144.112 74.8979 144.024 74.5193 143.848C74.1406 143.667 73.8179 143.403 73.5513 143.056C73.2846 142.709 73.0793 142.277 72.9353 141.76C72.7913 141.243 72.7193 140.648 72.7193 139.976C72.7193 139.379 72.7993 138.824 72.9593 138.312C73.1193 137.795 73.3486 137.347 73.6473 136.968C73.9459 136.589 74.3113 136.293 74.7433 136.08C75.1806 135.861 75.6713 135.752 76.2153 135.752C76.7113 135.752 77.1353 135.837 77.4873 136.008C77.8446 136.173 78.1619 136.405 78.4393 136.704V132.216H79.8633ZM88.7764 135.896V144H87.9284C87.7257 144 87.5977 143.901 87.5444 143.704L87.4324 142.832C87.0804 143.221 86.6857 143.536 86.2484 143.776C85.811 144.011 85.3097 144.128 84.7444 144.128C84.3017 144.128 83.9097 144.056 83.5684 143.912C83.2324 143.763 82.9497 143.555 82.7204 143.288C82.491 143.021 82.3177 142.699 82.2004 142.32C82.0884 141.941 82.0324 141.523 82.0324 141.064V135.896H83.4564V141.064C83.4564 141.677 83.595 142.152 83.8724 142.488C84.155 142.824 84.5844 142.992 85.1604 142.992C85.5817 142.992 85.9737 142.893 86.3364 142.696C86.7044 142.493 87.043 142.216 87.3524 141.864V135.896H88.7764ZM96.6743 137.336C96.6316 137.395 96.5889 137.44 96.5463 137.472C96.5036 137.504 96.4449 137.52 96.3703 137.52C96.2903 137.52 96.2023 137.488 96.1063 137.424C96.0103 137.355 95.8903 137.28 95.7463 137.2C95.6076 137.12 95.4343 137.048 95.2263 136.984C95.0236 136.915 94.7729 136.88 94.4743 136.88C94.0743 136.88 93.7223 136.952 93.4183 137.096C93.1143 137.235 92.8583 137.437 92.6503 137.704C92.4476 137.971 92.2929 138.293 92.1863 138.672C92.0849 139.051 92.0343 139.475 92.0343 139.944C92.0343 140.435 92.0903 140.872 92.2023 141.256C92.3143 141.635 92.4716 141.955 92.6743 142.216C92.8823 142.472 93.1303 142.669 93.4183 142.808C93.7116 142.941 94.0396 143.008 94.4023 143.008C94.7489 143.008 95.0343 142.968 95.2583 142.888C95.4823 142.803 95.6663 142.709 95.8103 142.608C95.9596 142.507 96.0823 142.416 96.1783 142.336C96.2796 142.251 96.3783 142.208 96.4743 142.208C96.5916 142.208 96.6823 142.253 96.7463 142.344L97.1463 142.864C96.9703 143.083 96.7703 143.269 96.5463 143.424C96.3223 143.579 96.0796 143.709 95.8183 143.816C95.5623 143.917 95.2929 143.992 95.0103 144.04C94.7276 144.088 94.4396 144.112 94.1463 144.112C93.6396 144.112 93.1676 144.019 92.7303 143.832C92.2983 143.645 91.9223 143.376 91.6023 143.024C91.2823 142.667 91.0316 142.229 90.8503 141.712C90.6689 141.195 90.5783 140.605 90.5783 139.944C90.5783 139.341 90.6609 138.784 90.8263 138.272C90.9969 137.76 91.2423 137.32 91.5623 136.952C91.8876 136.579 92.2849 136.288 92.7543 136.08C93.2289 135.872 93.7729 135.768 94.3863 135.768C94.9569 135.768 95.4583 135.861 95.8903 136.048C96.3276 136.229 96.7143 136.488 97.0503 136.824L96.6743 137.336ZM101.163 144.128C100.523 144.128 100.03 143.949 99.6829 143.592C99.3415 143.235 99.1709 142.72 99.1709 142.048V137.088H98.1949C98.1095 137.088 98.0375 137.064 97.9789 137.016C97.9202 136.963 97.8909 136.883 97.8909 136.776V136.208L99.2189 136.04L99.5469 133.536C99.5629 133.456 99.5975 133.392 99.6509 133.344C99.7095 133.291 99.7842 133.264 99.8749 133.264H100.595V136.056H102.939V137.088H100.595V141.952C100.595 142.293 100.678 142.547 100.843 142.712C101.008 142.877 101.222 142.96 101.483 142.96C101.632 142.96 101.76 142.941 101.867 142.904C101.979 142.861 102.075 142.816 102.155 142.768C102.235 142.72 102.302 142.677 102.355 142.64C102.414 142.597 102.464 142.576 102.507 142.576C102.582 142.576 102.648 142.621 102.707 142.712L103.123 143.392C102.878 143.621 102.582 143.803 102.235 143.936C101.888 144.064 101.531 144.128 101.163 144.128ZM109.129 137.232C109.065 137.349 108.967 137.408 108.833 137.408C108.753 137.408 108.663 137.379 108.561 137.32C108.46 137.261 108.335 137.197 108.185 137.128C108.041 137.053 107.868 136.987 107.665 136.928C107.463 136.864 107.223 136.832 106.945 136.832C106.705 136.832 106.489 136.864 106.297 136.928C106.105 136.987 105.94 137.069 105.801 137.176C105.668 137.283 105.564 137.408 105.489 137.552C105.42 137.691 105.385 137.843 105.385 138.008C105.385 138.216 105.444 138.389 105.561 138.528C105.684 138.667 105.844 138.787 106.041 138.888C106.239 138.989 106.463 139.08 106.713 139.16C106.964 139.235 107.22 139.317 107.481 139.408C107.748 139.493 108.007 139.589 108.257 139.696C108.508 139.803 108.732 139.936 108.929 140.096C109.127 140.256 109.284 140.453 109.401 140.688C109.524 140.917 109.585 141.195 109.585 141.52C109.585 141.893 109.519 142.24 109.385 142.56C109.252 142.875 109.055 143.149 108.793 143.384C108.532 143.613 108.212 143.795 107.833 143.928C107.455 144.061 107.017 144.128 106.521 144.128C105.956 144.128 105.444 144.037 104.985 143.856C104.527 143.669 104.137 143.432 103.817 143.144L104.153 142.6C104.196 142.531 104.247 142.477 104.305 142.44C104.364 142.403 104.439 142.384 104.529 142.384C104.625 142.384 104.727 142.421 104.833 142.496C104.94 142.571 105.068 142.653 105.217 142.744C105.372 142.835 105.559 142.917 105.777 142.992C105.996 143.067 106.268 143.104 106.593 143.104C106.871 143.104 107.113 143.069 107.321 143C107.529 142.925 107.703 142.827 107.841 142.704C107.98 142.581 108.081 142.44 108.145 142.28C108.215 142.12 108.249 141.949 108.249 141.768C108.249 141.544 108.188 141.36 108.065 141.216C107.948 141.067 107.791 140.941 107.593 140.84C107.396 140.733 107.169 140.643 106.913 140.568C106.663 140.488 106.404 140.405 106.137 140.32C105.876 140.235 105.617 140.139 105.361 140.032C105.111 139.92 104.887 139.781 104.689 139.616C104.492 139.451 104.332 139.248 104.209 139.008C104.092 138.763 104.033 138.467 104.033 138.12C104.033 137.811 104.097 137.515 104.225 137.232C104.353 136.944 104.54 136.693 104.785 136.48C105.031 136.261 105.332 136.088 105.689 135.96C106.047 135.832 106.455 135.768 106.913 135.768C107.447 135.768 107.924 135.853 108.345 136.024C108.772 136.189 109.14 136.419 109.449 136.712L109.129 137.232Z" fill="#7C7C7C"/>
<rect y="177" width="215" height="40" rx="4" fill="white"/>
<path d="M34.04 198.55C33.62 198.96 33.38 199.55 33.44 200.18C33.53 201.26 34.52 202.05 35.6 202.05H37.5V203.24C37.5 205.31 35.81 207 33.74 207H23.64C24.47 206.27 25 205.2 25 204C25 201.79 23.21 200 21 200C20.06 200 19.19 200.33 18.5 200.88V196.51C18.5 194.44 20.19 192.75 22.26 192.75H33.74C35.81 192.75 37.5 194.44 37.5 196.51V197.95H35.48C34.92 197.95 34.41 198.17 34.04 198.55Z" stroke="#7C7C7C" stroke-width="1.5" stroke-linecap="round" stroke-linejoin="round"/>
<path d="M18.5 196.51V192.84C18.5 191.65 19.23 190.59 20.34 190.17L28.28 187.17C29.52 186.71 30.85 187.62 30.85 188.95V192.75" stroke="#7C7C7C" stroke-width="1.5" stroke-linecap="round" stroke-linejoin="round"/>
<path d="M38.5588 198.97V201.03C38.5588 201.58 38.1188 202.03 37.5588 202.05H35.5988C34.5188 202.05 33.5288 201.26 33.4388 200.18C33.3788 199.55 33.6188 198.96 34.0388 198.55C34.4088 198.17 34.9188 197.95 35.4788 197.95H37.5588C38.1188 197.97 38.5588 198.42 38.5588 198.97Z" stroke="#7C7C7C" stroke-width="1.5" stroke-linecap="round" stroke-linejoin="round"/>
<path d="M23 197H30" stroke="#7C7C7C" stroke-width="1.5" stroke-linecap="round" stroke-linejoin="round"/>
<path d="M25 204C25 205.2 24.47 206.27 23.64 207C22.93 207.62 22.01 208 21 208C18.79 208 17 206.21 17 204C17 202.74 17.58 201.61 18.5 200.88C19.19 200.33 20.06 200 21 200C23.21 200 25 201.79 25 204Z" stroke="#7C7C7C" stroke-width="1.5" stroke-miterlimit="10" stroke-linecap="round" stroke-linejoin="round"/>
<path d="M21.25 202.75V204.25L20 205" stroke="#7C7C7C" stroke-width="1.5" stroke-miterlimit="10" stroke-linecap="round" stroke-linejoin="round"/>
<path d="M52.848 197.48C53.2907 197.48 53.68 197.421 54.016 197.304C54.3573 197.187 54.6427 197.024 54.872 196.816C55.1067 196.603 55.2827 196.349 55.4 196.056C55.5173 195.763 55.576 195.44 55.576 195.088C55.576 194.357 55.3493 193.787 54.896 193.376C54.448 192.965 53.7653 192.76 52.848 192.76H51.008V197.48H52.848ZM52.848 191.536C53.5733 191.536 54.2027 191.621 54.736 191.792C55.2747 191.957 55.72 192.195 56.072 192.504C56.424 192.813 56.6853 193.187 56.856 193.624C57.032 194.061 57.12 194.549 57.12 195.088C57.12 195.621 57.0267 196.109 56.84 196.552C56.6533 196.995 56.3787 197.376 56.016 197.696C55.6587 198.016 55.2133 198.267 54.68 198.448C54.152 198.624 53.5413 198.712 52.848 198.712H51.008V203H49.464V191.536H52.848ZM62.8794 199.352C62.2234 199.373 61.6634 199.427 61.1994 199.512C60.7407 199.592 60.3647 199.699 60.0714 199.832C59.7834 199.965 59.5727 200.123 59.4394 200.304C59.3114 200.485 59.2474 200.688 59.2474 200.912C59.2474 201.125 59.282 201.309 59.3514 201.464C59.4207 201.619 59.514 201.747 59.6314 201.848C59.754 201.944 59.8954 202.016 60.0554 202.064C60.2207 202.107 60.3967 202.128 60.5834 202.128C60.834 202.128 61.0634 202.104 61.2714 202.056C61.4794 202.003 61.674 201.928 61.8554 201.832C62.042 201.736 62.218 201.621 62.3834 201.488C62.554 201.355 62.7194 201.203 62.8794 201.032V199.352ZM58.2794 196.04C58.7274 195.608 59.21 195.285 59.7274 195.072C60.2447 194.859 60.818 194.752 61.4474 194.752C61.9007 194.752 62.3034 194.827 62.6554 194.976C63.0074 195.125 63.3034 195.333 63.5434 195.6C63.7834 195.867 63.9647 196.189 64.0874 196.568C64.21 196.947 64.2714 197.363 64.2714 197.816V203H63.6394C63.5007 203 63.394 202.979 63.3194 202.936C63.2447 202.888 63.186 202.797 63.1434 202.664L62.9834 201.896C62.77 202.093 62.562 202.269 62.3594 202.424C62.1567 202.573 61.9434 202.701 61.7194 202.808C61.4954 202.909 61.2554 202.987 60.9994 203.04C60.7487 203.099 60.4687 203.128 60.1594 203.128C59.8447 203.128 59.5487 203.085 59.2714 203C58.994 202.909 58.7514 202.776 58.5434 202.6C58.3407 202.424 58.178 202.203 58.0554 201.936C57.938 201.664 57.8794 201.344 57.8794 200.976C57.8794 200.656 57.9674 200.349 58.1434 200.056C58.3194 199.757 58.6047 199.493 58.9994 199.264C59.394 199.035 59.9087 198.848 60.5434 198.704C61.178 198.555 61.9567 198.469 62.8794 198.448V197.816C62.8794 197.187 62.7434 196.712 62.4714 196.392C62.1994 196.067 61.802 195.904 61.2794 195.904C60.9274 195.904 60.6314 195.949 60.3914 196.04C60.1567 196.125 59.9514 196.224 59.7754 196.336C59.6047 196.443 59.4554 196.541 59.3274 196.632C59.2047 196.717 59.082 196.76 58.9594 196.76C58.8634 196.76 58.7807 196.736 58.7114 196.688C58.642 196.635 58.5834 196.571 58.5354 196.496L58.2794 196.04ZM73.245 194.896L68.725 205.392C68.677 205.499 68.6157 205.584 68.541 205.648C68.4717 205.712 68.3623 205.744 68.213 205.744H67.157L68.637 202.528L65.293 194.896H66.525C66.6477 194.896 66.7437 194.928 66.813 194.992C66.8877 195.051 66.9383 195.117 66.965 195.192L69.133 200.296C69.2183 200.52 69.2903 200.755 69.349 201C69.4237 200.749 69.5037 200.512 69.589 200.288L71.693 195.192C71.725 195.107 71.7783 195.037 71.853 194.984C71.933 194.925 72.021 194.896 72.117 194.896H73.245ZM74.503 203V194.896H75.359C75.5617 194.896 75.687 194.995 75.735 195.192L75.839 196.024C76.1377 195.656 76.4737 195.355 76.847 195.12C77.2203 194.885 77.6523 194.768 78.143 194.768C78.687 194.768 79.127 194.92 79.463 195.224C79.8043 195.528 80.0497 195.939 80.199 196.456C80.3163 196.163 80.4657 195.909 80.647 195.696C80.8337 195.483 81.0417 195.307 81.271 195.168C81.5003 195.029 81.743 194.928 81.999 194.864C82.2603 194.8 82.5243 194.768 82.791 194.768C83.2177 194.768 83.5963 194.837 83.927 194.976C84.263 195.109 84.5457 195.307 84.775 195.568C85.0097 195.829 85.1883 196.152 85.311 196.536C85.4337 196.915 85.495 197.349 85.495 197.84V203H84.063V197.84C84.063 197.205 83.9243 196.725 83.647 196.4C83.3697 196.069 82.9697 195.904 82.447 195.904C82.2123 195.904 81.9883 195.947 81.775 196.032C81.567 196.112 81.383 196.232 81.223 196.392C81.063 196.552 80.935 196.755 80.839 197C80.7483 197.24 80.703 197.52 80.703 197.84V203H79.271V197.84C79.271 197.189 79.1403 196.704 78.879 196.384C78.6177 196.064 78.2363 195.904 77.735 195.904C77.383 195.904 77.0577 196 76.759 196.192C76.4603 196.379 76.1857 196.635 75.935 196.96V203H74.503ZM93.0833 198.064C93.0833 197.733 93.0353 197.432 92.9393 197.16C92.8486 196.883 92.7126 196.645 92.5313 196.448C92.3553 196.245 92.1393 196.091 91.8833 195.984C91.6273 195.872 91.3366 195.816 91.0113 195.816C90.3286 195.816 89.7873 196.016 89.3873 196.416C88.9926 196.811 88.7473 197.36 88.6513 198.064H93.0833ZM94.2353 201.864C94.0593 202.077 93.8486 202.264 93.6033 202.424C93.3579 202.579 93.0939 202.707 92.8113 202.808C92.5339 202.909 92.2459 202.984 91.9473 203.032C91.6486 203.085 91.3526 203.112 91.0593 203.112C90.4993 203.112 89.9819 203.019 89.5073 202.832C89.0379 202.64 88.6299 202.363 88.2833 202C87.9419 201.632 87.6753 201.179 87.4833 200.64C87.2913 200.101 87.1953 199.483 87.1953 198.784C87.1953 198.219 87.2806 197.691 87.4513 197.2C87.6273 196.709 87.8779 196.285 88.2033 195.928C88.5286 195.565 88.9259 195.283 89.3953 195.08C89.8646 194.872 90.3926 194.768 90.9793 194.768C91.4646 194.768 91.9126 194.851 92.3233 195.016C92.7393 195.176 93.0966 195.411 93.3953 195.72C93.6993 196.024 93.9366 196.403 94.1073 196.856C94.2779 197.304 94.3633 197.816 94.3633 198.392C94.3633 198.616 94.3393 198.765 94.2913 198.84C94.2433 198.915 94.1526 198.952 94.0193 198.952H88.6033C88.6193 199.464 88.6886 199.909 88.8113 200.288C88.9393 200.667 89.1153 200.984 89.3393 201.24C89.5633 201.491 89.8299 201.68 90.1393 201.808C90.4486 201.931 90.7953 201.992 91.1793 201.992C91.5366 201.992 91.8433 201.952 92.0993 201.872C92.3606 201.787 92.5846 201.696 92.7713 201.6C92.9579 201.504 93.1126 201.416 93.2353 201.336C93.3633 201.251 93.4726 201.208 93.5633 201.208C93.6806 201.208 93.7713 201.253 93.8353 201.344L94.2353 201.864ZM97.4564 196.072C97.6324 195.875 97.819 195.696 98.0164 195.536C98.2137 195.376 98.4217 195.24 98.6404 195.128C98.8644 195.011 99.099 194.923 99.3444 194.864C99.595 194.8 99.8644 194.768 100.152 194.768C100.595 194.768 100.984 194.843 101.32 194.992C101.662 195.136 101.944 195.344 102.168 195.616C102.398 195.883 102.571 196.205 102.688 196.584C102.806 196.963 102.864 197.381 102.864 197.84V203H101.432V197.84C101.432 197.227 101.291 196.752 101.008 196.416C100.731 196.075 100.307 195.904 99.7364 195.904C99.315 195.904 98.9204 196.005 98.5524 196.208C98.1897 196.411 97.8537 196.685 97.5444 197.032V203H96.1124V194.896H96.9684C97.171 194.896 97.2964 194.995 97.3444 195.192L97.4564 196.072ZM107.413 203.128C106.773 203.128 106.28 202.949 105.933 202.592C105.592 202.235 105.421 201.72 105.421 201.048V196.088H104.445C104.36 196.088 104.288 196.064 104.229 196.016C104.17 195.963 104.141 195.883 104.141 195.776V195.208L105.469 195.04L105.797 192.536C105.813 192.456 105.848 192.392 105.901 192.344C105.96 192.291 106.034 192.264 106.125 192.264H106.845V195.056H109.189V196.088H106.845V200.952C106.845 201.293 106.928 201.547 107.093 201.712C107.258 201.877 107.472 201.96 107.733 201.96C107.882 201.96 108.01 201.941 108.117 201.904C108.229 201.861 108.325 201.816 108.405 201.768C108.485 201.72 108.552 201.677 108.605 201.64C108.664 201.597 108.714 201.576 108.757 201.576C108.832 201.576 108.898 201.621 108.957 201.712L109.373 202.392C109.128 202.621 108.832 202.803 108.485 202.936C108.138 203.064 107.781 203.128 107.413 203.128Z" fill="#7C7C7C"/>
<rect y="236" width="215" height="40" rx="4" fill="white"/>
<path d="M31 246V256C31 257.1 30.1 258 29 258H18V250C18 247.79 19.79 246 22 246H31Z" stroke="#7C7C7C" stroke-width="1.5" stroke-linecap="round" stroke-linejoin="round"/>
<path d="M38 258V261C38 262.66 36.66 264 35 264H34C34 262.9 33.1 262 32 262C30.9 262 30 262.9 30 264H26C26 262.9 25.1 262 24 262C22.9 262 22 262.9 22 264H21C19.34 264 18 262.66 18 261V258H29C30.1 258 31 257.1 31 256V249H32.84C33.56 249 34.22 249.39 34.58 250.01L36.29 253H35C34.45 253 34 253.45 34 254V257C34 257.55 34.45 258 35 258H38Z" stroke="#7C7C7C" stroke-width="1.5" stroke-linecap="round" stroke-linejoin="round"/>
<path d="M24 266C25.1046 266 26 265.105 26 264C26 262.895 25.1046 262 24 262C22.8954 262 22 262.895 22 264C22 265.105 22.8954 266 24 266Z" stroke="#7C7C7C" stroke-width="1.5" stroke-linecap="round" stroke-linejoin="round"/>
<path d="M32 266C33.1046 266 34 265.105 34 264C34 262.895 33.1046 262 32 262C30.8954 262 30 262.895 30 264C30 265.105 30.8954 266 32 266Z" stroke="#7C7C7C" stroke-width="1.5" stroke-linecap="round" stroke-linejoin="round"/>
<path d="M38 256V258H35C34.45 258 34 257.55 34 257V254C34 253.45 34.45 253 35 253H36.29L38 256Z" stroke="#7C7C7C" stroke-width="1.5" stroke-linecap="round" stroke-linejoin="round"/>
<path d="M60.056 256.272C60.056 257.131 59.92 257.92 59.648 258.64C59.376 259.355 58.992 259.971 58.496 260.488C58 261.005 57.4027 261.408 56.704 261.696C56.0107 261.979 55.2427 262.12 54.4 262.12C53.5573 262.12 52.7893 261.979 52.096 261.696C51.4027 261.408 50.808 261.005 50.312 260.488C49.816 259.971 49.432 259.355 49.16 258.64C48.888 257.92 48.752 257.131 48.752 256.272C48.752 255.413 48.888 254.627 49.16 253.912C49.432 253.192 49.816 252.573 50.312 252.056C50.808 251.533 51.4027 251.128 52.096 250.84C52.7893 250.552 53.5573 250.408 54.4 250.408C55.2427 250.408 56.0107 250.552 56.704 250.84C57.4027 251.128 58 251.533 58.496 252.056C58.992 252.573 59.376 253.192 59.648 253.912C59.92 254.627 60.056 255.413 60.056 256.272ZM58.464 256.272C58.464 255.568 58.368 254.936 58.176 254.376C57.984 253.816 57.712 253.344 57.36 252.96C57.008 252.571 56.5813 252.272 56.08 252.064C55.5787 251.856 55.0187 251.752 54.4 251.752C53.7867 251.752 53.2293 251.856 52.728 252.064C52.2267 252.272 51.7973 252.571 51.44 252.96C51.088 253.344 50.816 253.816 50.624 254.376C50.432 254.936 50.336 255.568 50.336 256.272C50.336 256.976 50.432 257.608 50.624 258.168C50.816 258.723 51.088 259.195 51.44 259.584C51.7973 259.968 52.2267 260.264 52.728 260.472C53.2293 260.675 53.7867 260.776 54.4 260.776C55.0187 260.776 55.5787 260.675 56.08 260.472C56.5813 260.264 57.008 259.968 57.36 259.584C57.712 259.195 57.984 258.723 58.176 258.168C58.368 257.608 58.464 256.976 58.464 256.272ZM63.1363 255.52C63.3923 254.965 63.7069 254.533 64.0803 254.224C64.4536 253.909 64.9096 253.752 65.4483 253.752C65.6189 253.752 65.7816 253.771 65.9363 253.808C66.0963 253.845 66.2376 253.904 66.3603 253.984L66.2563 255.048C66.2243 255.181 66.1443 255.248 66.0163 255.248C65.9416 255.248 65.8323 255.232 65.6883 255.2C65.5443 255.168 65.3816 255.152 65.2003 255.152C64.9443 255.152 64.7149 255.189 64.5123 255.264C64.3149 255.339 64.1363 255.451 63.9763 255.6C63.8216 255.744 63.6803 255.925 63.5523 256.144C63.4296 256.357 63.3176 256.603 63.2163 256.88V262H61.7843V253.896H62.6003C62.7549 253.896 62.8616 253.925 62.9203 253.984C62.9789 254.043 63.0189 254.144 63.0403 254.288L63.1363 255.52ZM72.5799 255.824C72.3132 255.467 72.0252 255.219 71.7159 255.08C71.4065 254.936 71.0599 254.864 70.6759 254.864C69.9239 254.864 69.3452 255.133 68.9399 255.672C68.5345 256.211 68.3319 256.979 68.3319 257.976C68.3319 258.504 68.3772 258.957 68.4679 259.336C68.5585 259.709 68.6919 260.019 68.8679 260.264C69.0439 260.504 69.2599 260.68 69.5159 260.792C69.7719 260.904 70.0625 260.96 70.3879 260.96C70.8572 260.96 71.2652 260.853 71.6119 260.64C71.9639 260.427 72.2865 260.125 72.5799 259.736V255.824ZM74.0039 250.216V262H73.1559C72.9532 262 72.8252 261.901 72.7719 261.704L72.6439 260.72C72.2972 261.136 71.9025 261.472 71.4599 261.728C71.0172 261.984 70.5052 262.112 69.9239 262.112C69.4599 262.112 69.0385 262.024 68.6599 261.848C68.2812 261.667 67.9585 261.403 67.6919 261.056C67.4252 260.709 67.2199 260.277 67.0759 259.76C66.9319 259.243 66.8599 258.648 66.8599 257.976C66.8599 257.379 66.9399 256.824 67.0999 256.312C67.2599 255.795 67.4892 255.347 67.7879 254.968C68.0865 254.589 68.4519 254.293 68.8839 254.08C69.3212 253.861 69.8119 253.752 70.3559 253.752C70.8519 253.752 71.2759 253.837 71.6279 254.008C71.9852 254.173 72.3025 254.405 72.5799 254.704V250.216H74.0039ZM81.677 257.064C81.677 256.733 81.629 256.432 81.533 256.16C81.4423 255.883 81.3063 255.645 81.125 255.448C80.949 255.245 80.733 255.091 80.477 254.984C80.221 254.872 79.9303 254.816 79.605 254.816C78.9223 254.816 78.381 255.016 77.981 255.416C77.5863 255.811 77.341 256.36 77.245 257.064H81.677ZM82.829 260.864C82.653 261.077 82.4423 261.264 82.197 261.424C81.9517 261.579 81.6877 261.707 81.405 261.808C81.1277 261.909 80.8397 261.984 80.541 262.032C80.2423 262.085 79.9463 262.112 79.653 262.112C79.093 262.112 78.5757 262.019 78.101 261.832C77.6317 261.64 77.2237 261.363 76.877 261C76.5357 260.632 76.269 260.179 76.077 259.64C75.885 259.101 75.789 258.483 75.789 257.784C75.789 257.219 75.8743 256.691 76.045 256.2C76.221 255.709 76.4717 255.285 76.797 254.928C77.1223 254.565 77.5197 254.283 77.989 254.08C78.4583 253.872 78.9863 253.768 79.573 253.768C80.0583 253.768 80.5063 253.851 80.917 254.016C81.333 254.176 81.6903 254.411 81.989 254.72C82.293 255.024 82.5303 255.403 82.701 255.856C82.8717 256.304 82.957 256.816 82.957 257.392C82.957 257.616 82.933 257.765 82.885 257.84C82.837 257.915 82.7463 257.952 82.613 257.952H77.197C77.213 258.464 77.2823 258.909 77.405 259.288C77.533 259.667 77.709 259.984 77.933 260.24C78.157 260.491 78.4237 260.68 78.733 260.808C79.0423 260.931 79.389 260.992 79.773 260.992C80.1303 260.992 80.437 260.952 80.693 260.872C80.9543 260.787 81.1783 260.696 81.365 260.6C81.5517 260.504 81.7063 260.416 81.829 260.336C81.957 260.251 82.0663 260.208 82.157 260.208C82.2743 260.208 82.365 260.253 82.429 260.344L82.829 260.864ZM86.0581 255.52C86.3141 254.965 86.6288 254.533 87.0021 254.224C87.3755 253.909 87.8315 253.752 88.3701 253.752C88.5408 253.752 88.7035 253.771 88.8581 253.808C89.0181 253.845 89.1595 253.904 89.2821 253.984L89.1781 255.048C89.1461 255.181 89.0661 255.248 88.9381 255.248C88.8635 255.248 88.7541 255.232 88.6101 255.2C88.4661 255.168 88.3035 255.152 88.1221 255.152C87.8661 255.152 87.6368 255.189 87.4341 255.264C87.2368 255.339 87.0581 255.451 86.8981 255.6C86.7435 255.744 86.6021 255.925 86.4741 256.144C86.3515 256.357 86.2395 256.603 86.1381 256.88V262H84.7061V253.896H85.5221C85.6768 253.896 85.7835 253.925 85.8421 253.984C85.9008 254.043 85.9408 254.144 85.9621 254.288L86.0581 255.52ZM95.2074 255.232C95.1434 255.349 95.0447 255.408 94.9114 255.408C94.8314 255.408 94.7407 255.379 94.6394 255.32C94.538 255.261 94.4127 255.197 94.2634 255.128C94.1194 255.053 93.946 254.987 93.7434 254.928C93.5407 254.864 93.3007 254.832 93.0234 254.832C92.7834 254.832 92.5674 254.864 92.3754 254.928C92.1834 254.987 92.018 255.069 91.8794 255.176C91.746 255.283 91.642 255.408 91.5674 255.552C91.498 255.691 91.4634 255.843 91.4634 256.008C91.4634 256.216 91.522 256.389 91.6394 256.528C91.762 256.667 91.922 256.787 92.1194 256.888C92.3167 256.989 92.5407 257.08 92.7914 257.16C93.042 257.235 93.298 257.317 93.5594 257.408C93.826 257.493 94.0847 257.589 94.3354 257.696C94.586 257.803 94.81 257.936 95.0074 258.096C95.2047 258.256 95.362 258.453 95.4794 258.688C95.602 258.917 95.6634 259.195 95.6634 259.52C95.6634 259.893 95.5967 260.24 95.4634 260.56C95.33 260.875 95.1327 261.149 94.8714 261.384C94.61 261.613 94.29 261.795 93.9114 261.928C93.5327 262.061 93.0954 262.128 92.5994 262.128C92.034 262.128 91.522 262.037 91.0634 261.856C90.6047 261.669 90.2154 261.432 89.8954 261.144L90.2314 260.6C90.274 260.531 90.3247 260.477 90.3834 260.44C90.442 260.403 90.5167 260.384 90.6074 260.384C90.7034 260.384 90.8047 260.421 90.9114 260.496C91.018 260.571 91.146 260.653 91.2954 260.744C91.45 260.835 91.6367 260.917 91.8554 260.992C92.074 261.067 92.346 261.104 92.6714 261.104C92.9487 261.104 93.1914 261.069 93.3994 261C93.6074 260.925 93.7807 260.827 93.9194 260.704C94.058 260.581 94.1594 260.44 94.2234 260.28C94.2927 260.12 94.3274 259.949 94.3274 259.768C94.3274 259.544 94.266 259.36 94.1434 259.216C94.026 259.067 93.8687 258.941 93.6714 258.84C93.474 258.733 93.2474 258.643 92.9914 258.568C92.7407 258.488 92.482 258.405 92.2154 258.32C91.954 258.235 91.6954 258.139 91.4394 258.032C91.1887 257.92 90.9647 257.781 90.7674 257.616C90.57 257.451 90.41 257.248 90.2874 257.008C90.17 256.763 90.1114 256.467 90.1114 256.12C90.1114 255.811 90.1754 255.515 90.3034 255.232C90.4314 254.944 90.618 254.693 90.8634 254.48C91.1087 254.261 91.41 254.088 91.7674 253.96C92.1247 253.832 92.5327 253.768 92.9914 253.768C93.5247 253.768 94.002 253.853 94.4234 254.024C94.85 254.189 95.218 254.419 95.5274 254.712L95.2074 255.232Z" fill="#7C7C7C"/>
<rect y="295" width="215" height="40" rx="4" fill="white"/>
<path d="M34 321.86H33.24C32.44 321.86 31.68 322.17 31.12 322.73L29.41 324.42C28.63 325.19 27.36 325.19 26.58 324.42L24.87 322.73C24.31 322.17 23.54 321.86 22.75 321.86H22C20.34 321.86 19 320.53 19 318.89V307.98C19 306.34 20.34 305.01 22 305.01H34C35.66 305.01 37 306.34 37 307.98V318.89C37 320.52 35.66 321.86 34 321.86Z" stroke="#7C7C7C" stroke-width="1.5" stroke-miterlimit="10" stroke-linecap="round" stroke-linejoin="round"/>
<path d="M27.9999 313C29.2868 313 30.33 311.957 30.33 310.67C30.33 309.383 29.2868 308.34 27.9999 308.34C26.7131 308.34 25.6699 309.383 25.6699 310.67C25.6699 311.957 26.7131 313 27.9999 313Z" stroke="#7C7C7C" stroke-width="1.5" stroke-linecap="round" stroke-linejoin="round"/>
<path d="M32 318.66C32 316.86 30.21 315.4 28 315.4C25.79 315.4 24 316.86 24 318.66" stroke="#7C7C7C" stroke-width="1.5" stroke-linecap="round" stroke-linejoin="round"/>
<path d="M56.536 319.736L56.528 321H49.464V309.536H56.528V310.8H51.016V314.608H55.48V315.824H51.016V319.736H56.536ZM59.4876 314.072C59.6636 313.875 59.8503 313.696 60.0476 313.536C60.245 313.376 60.453 313.24 60.6716 313.128C60.8956 313.011 61.1303 312.923 61.3756 312.864C61.6263 312.8 61.8956 312.768 62.1836 312.768C62.6263 312.768 63.0156 312.843 63.3516 312.992C63.693 313.136 63.9756 313.344 64.1996 313.616C64.429 313.883 64.6023 314.205 64.7196 314.584C64.837 314.963 64.8956 315.381 64.8956 315.84V321H63.4636V315.84C63.4636 315.227 63.3223 314.752 63.0396 314.416C62.7623 314.075 62.3383 313.904 61.7676 313.904C61.3463 313.904 60.9516 314.005 60.5836 314.208C60.221 314.411 59.885 314.685 59.5756 315.032V321H58.1436V312.896H58.9996C59.2023 312.896 59.3276 312.995 59.3756 313.192L59.4876 314.072ZM72.3455 314.816C72.0895 314.475 71.8042 314.232 71.4895 314.088C71.1748 313.939 70.8255 313.864 70.4415 313.864C69.6895 313.864 69.1108 314.133 68.7055 314.672C68.3002 315.211 68.0975 315.979 68.0975 316.976C68.0975 317.504 68.1428 317.957 68.2335 318.336C68.3242 318.709 68.4575 319.019 68.6335 319.264C68.8095 319.504 69.0255 319.68 69.2815 319.792C69.5375 319.904 69.8282 319.96 70.1535 319.96C70.6228 319.96 71.0308 319.853 71.3775 319.64C71.7295 319.427 72.0522 319.125 72.3455 318.736V314.816ZM73.7695 312.896V323.744H72.3455V319.792C72.0095 320.187 71.6228 320.507 71.1855 320.752C70.7482 320.992 70.2495 321.112 69.6895 321.112C69.2255 321.112 68.8042 321.024 68.4255 320.848C68.0468 320.667 67.7242 320.403 67.4575 320.056C67.1908 319.709 66.9855 319.277 66.8415 318.76C66.6975 318.243 66.6255 317.648 66.6255 316.976C66.6255 316.379 66.7055 315.824 66.8655 315.312C67.0255 314.795 67.2548 314.347 67.5535 313.968C67.8522 313.589 68.2175 313.293 68.6495 313.08C69.0868 312.861 69.5775 312.752 70.1215 312.752C70.6495 312.752 71.0975 312.845 71.4655 313.032C71.8335 313.219 72.1588 313.48 72.4415 313.816L72.5375 313.192C72.5908 312.995 72.7188 312.896 72.9215 312.896H73.7695ZM82.6826 312.896V321H81.8346C81.632 321 81.504 320.901 81.4506 320.704L81.3386 319.832C80.9866 320.221 80.592 320.536 80.1546 320.776C79.7173 321.011 79.216 321.128 78.6506 321.128C78.208 321.128 77.816 321.056 77.4746 320.912C77.1386 320.763 76.856 320.555 76.6266 320.288C76.3973 320.021 76.224 319.699 76.1066 319.32C75.9946 318.941 75.9386 318.523 75.9386 318.064V312.896H77.3626V318.064C77.3626 318.677 77.5013 319.152 77.7786 319.488C78.0613 319.824 78.4906 319.992 79.0666 319.992C79.488 319.992 79.88 319.893 80.2426 319.696C80.6106 319.493 80.9493 319.216 81.2586 318.864V312.896H82.6826ZM86.4445 312.896V321H85.0205V312.896H86.4445ZM86.7485 310.352C86.7485 310.491 86.7192 310.621 86.6605 310.744C86.6072 310.861 86.5325 310.968 86.4365 311.064C86.3458 311.155 86.2365 311.227 86.1085 311.28C85.9858 311.333 85.8552 311.36 85.7165 311.36C85.5778 311.36 85.4472 311.333 85.3245 311.28C85.2072 311.227 85.1032 311.155 85.0125 311.064C84.9218 310.968 84.8498 310.861 84.7965 310.744C84.7432 310.621 84.7165 310.491 84.7165 310.352C84.7165 310.213 84.7432 310.083 84.7965 309.96C84.8498 309.832 84.9218 309.723 85.0125 309.632C85.1032 309.536 85.2072 309.461 85.3245 309.408C85.4472 309.355 85.5778 309.328 85.7165 309.328C85.8552 309.328 85.9858 309.355 86.1085 309.408C86.2365 309.461 86.3458 309.536 86.4365 309.632C86.5325 309.723 86.6072 309.832 86.6605 309.96C86.7192 310.083 86.7485 310.213 86.7485 310.352ZM90.1363 314.52C90.3923 313.965 90.7069 313.533 91.0803 313.224C91.4536 312.909 91.9096 312.752 92.4483 312.752C92.6189 312.752 92.7816 312.771 92.9363 312.808C93.0963 312.845 93.2376 312.904 93.3603 312.984L93.2563 314.048C93.2243 314.181 93.1443 314.248 93.0163 314.248C92.9416 314.248 92.8323 314.232 92.6883 314.2C92.5443 314.168 92.3816 314.152 92.2003 314.152C91.9443 314.152 91.7149 314.189 91.5123 314.264C91.3149 314.339 91.1363 314.451 90.9763 314.6C90.8216 314.744 90.6803 314.925 90.5523 315.144C90.4296 315.357 90.3176 315.603 90.2163 315.88V321H88.7843V312.896H89.6003C89.7549 312.896 89.8616 312.925 89.9203 312.984C89.9789 313.043 90.0189 313.144 90.0403 313.288L90.1363 314.52ZM101.604 312.896L97.0844 323.392C97.0364 323.499 96.975 323.584 96.9004 323.648C96.831 323.712 96.7217 323.744 96.5724 323.744H95.5164L96.9964 320.528L93.6524 312.896H94.8844C95.007 312.896 95.103 312.928 95.1724 312.992C95.247 313.051 95.2977 313.117 95.3244 313.192L97.4924 318.296C97.5777 318.52 97.6497 318.755 97.7084 319C97.783 318.749 97.863 318.512 97.9484 318.288L100.052 313.192C100.084 313.107 100.138 313.037 100.212 312.984C100.292 312.925 100.38 312.896 100.476 312.896H101.604Z" fill="#7C7C7C"/>
<rect y="354" width="215" height="40" rx="4" fill="white"/>
<path d="M21.9002 379H34.0902C35.9902 379 36.9902 378 36.9902 376.1V364H18.9902V376.1C19.0002 378 20.0002 379 21.9002 379Z" stroke="#7C7C7C" stroke-width="1.5" stroke-miterlimit="10" stroke-linecap="round" stroke-linejoin="round"/>
<path d="M18 364H38" stroke="#7C7C7C" stroke-width="1.5" stroke-miterlimit="10" stroke-linecap="round" stroke-linejoin="round"/>
<path d="M24 384L28 382V379" stroke="#7C7C7C" stroke-width="1.5" stroke-miterlimit="10" stroke-linecap="round" stroke-linejoin="round"/>
<path d="M32 384L28 382" stroke="#7C7C7C" stroke-width="1.5" stroke-miterlimit="10" stroke-linecap="round" stroke-linejoin="round"/>
<path d="M23.5 373L26.65 370.37C26.9 370.16 27.23 370.22 27.4 370.5L28.6 372.5C28.77 372.78 29.1 372.83 29.35 372.63L32.5 370" stroke="#7C7C7C" stroke-width="1.5" stroke-miterlimit="10" stroke-linecap="round" stroke-linejoin="round"/>
<path d="M61.392 368.536V380H60.032V371.576C60.032 371.464 60.0347 371.344 60.04 371.216C60.0507 371.088 60.0613 370.957 60.072 370.824L56.136 377.992C56.0133 378.232 55.8267 378.352 55.576 378.352H55.352C55.1013 378.352 54.9147 378.232 54.792 377.992L50.776 370.792C50.808 371.075 50.824 371.336 50.824 371.576V380H49.464V368.536H50.608C50.7467 368.536 50.8533 368.549 50.928 368.576C51.0027 368.603 51.0747 368.677 51.144 368.8L55.104 375.856C55.168 375.984 55.2293 376.117 55.288 376.256C55.352 376.395 55.4107 376.536 55.464 376.68C55.5173 376.536 55.5733 376.395 55.632 376.256C55.6907 376.112 55.7547 375.976 55.824 375.848L59.712 368.8C59.776 368.677 59.8453 368.603 59.92 368.576C60 368.549 60.1093 368.536 60.248 368.536H61.392ZM68.145 376.352C67.489 376.373 66.929 376.427 66.465 376.512C66.0063 376.592 65.6303 376.699 65.337 376.832C65.049 376.965 64.8383 377.123 64.705 377.304C64.577 377.485 64.513 377.688 64.513 377.912C64.513 378.125 64.5477 378.309 64.617 378.464C64.6863 378.619 64.7797 378.747 64.897 378.848C65.0197 378.944 65.161 379.016 65.321 379.064C65.4863 379.107 65.6623 379.128 65.849 379.128C66.0997 379.128 66.329 379.104 66.537 379.056C66.745 379.003 66.9397 378.928 67.121 378.832C67.3077 378.736 67.4837 378.621 67.649 378.488C67.8197 378.355 67.985 378.203 68.145 378.032V376.352ZM63.545 373.04C63.993 372.608 64.4757 372.285 64.993 372.072C65.5103 371.859 66.0837 371.752 66.713 371.752C67.1663 371.752 67.569 371.827 67.921 371.976C68.273 372.125 68.569 372.333 68.809 372.6C69.049 372.867 69.2303 373.189 69.353 373.568C69.4757 373.947 69.537 374.363 69.537 374.816V380H68.905C68.7663 380 68.6597 379.979 68.585 379.936C68.5103 379.888 68.4517 379.797 68.409 379.664L68.249 378.896C68.0357 379.093 67.8277 379.269 67.625 379.424C67.4223 379.573 67.209 379.701 66.985 379.808C66.761 379.909 66.521 379.987 66.265 380.04C66.0143 380.099 65.7343 380.128 65.425 380.128C65.1103 380.128 64.8143 380.085 64.537 380C64.2597 379.909 64.017 379.776 63.809 379.6C63.6063 379.424 63.4437 379.203 63.321 378.936C63.2037 378.664 63.145 378.344 63.145 377.976C63.145 377.656 63.233 377.349 63.409 377.056C63.585 376.757 63.8703 376.493 64.265 376.264C64.6597 376.035 65.1743 375.848 65.809 375.704C66.4437 375.555 67.2223 375.469 68.145 375.448V374.816C68.145 374.187 68.009 373.712 67.737 373.392C67.465 373.067 67.0677 372.904 66.545 372.904C66.193 372.904 65.897 372.949 65.657 373.04C65.4223 373.125 65.217 373.224 65.041 373.336C64.8703 373.443 64.721 373.541 64.593 373.632C64.4703 373.717 64.3477 373.76 64.225 373.76C64.129 373.76 64.0463 373.736 63.977 373.688C63.9077 373.635 63.849 373.571 63.801 373.496L63.545 373.04ZM73.0581 373.52C73.3141 372.965 73.6288 372.533 74.0021 372.224C74.3755 371.909 74.8315 371.752 75.3701 371.752C75.5408 371.752 75.7035 371.771 75.8581 371.808C76.0181 371.845 76.1595 371.904 76.2821 371.984L76.1781 373.048C76.1461 373.181 76.0661 373.248 75.9381 373.248C75.8635 373.248 75.7541 373.232 75.6101 373.2C75.4661 373.168 75.3035 373.152 75.1221 373.152C74.8661 373.152 74.6368 373.189 74.4341 373.264C74.2368 373.339 74.0581 373.451 73.8981 373.6C73.7435 373.744 73.6021 373.925 73.4741 374.144C73.3515 374.357 73.2395 374.603 73.1381 374.88V380H71.7061V371.896H72.5221C72.6768 371.896 72.7835 371.925 72.8421 371.984C72.9008 372.043 72.9408 372.144 72.9621 372.288L73.0581 373.52ZM78.9663 368.216V375.152H79.3343C79.4409 375.152 79.5289 375.139 79.5983 375.112C79.6729 375.08 79.7503 375.019 79.8303 374.928L82.3903 372.184C82.4649 372.093 82.5423 372.024 82.6223 371.976C82.7076 371.923 82.8196 371.896 82.9583 371.896H84.2463L81.2623 375.072C81.1183 375.253 80.9636 375.395 80.7983 375.496C80.8943 375.56 80.9796 375.635 81.0543 375.72C81.1343 375.8 81.2089 375.893 81.2783 376L84.4462 380H83.1743C83.0516 380 82.9449 379.981 82.8543 379.944C82.7689 379.901 82.6943 379.827 82.6303 379.72L79.9663 376.4C79.8863 376.288 79.8063 376.216 79.7263 376.184C79.6516 376.147 79.5343 376.128 79.3743 376.128H78.9663V380H77.5343V368.216H78.9663ZM90.6301 375.064C90.6301 374.733 90.5821 374.432 90.4861 374.16C90.3955 373.883 90.2595 373.645 90.0781 373.448C89.9021 373.245 89.6861 373.091 89.4301 372.984C89.1741 372.872 88.8835 372.816 88.5581 372.816C87.8755 372.816 87.3341 373.016 86.9341 373.416C86.5395 373.811 86.2941 374.36 86.1981 375.064H90.6301ZM91.7821 378.864C91.6061 379.077 91.3955 379.264 91.1501 379.424C90.9048 379.579 90.6408 379.707 90.3581 379.808C90.0808 379.909 89.7928 379.984 89.4941 380.032C89.1955 380.085 88.8995 380.112 88.6061 380.112C88.0461 380.112 87.5288 380.019 87.0541 379.832C86.5848 379.64 86.1768 379.363 85.8301 379C85.4888 378.632 85.2221 378.179 85.0301 377.64C84.8381 377.101 84.7421 376.483 84.7421 375.784C84.7421 375.219 84.8275 374.691 84.9981 374.2C85.1741 373.709 85.4248 373.285 85.7501 372.928C86.0755 372.565 86.4728 372.283 86.9421 372.08C87.4115 371.872 87.9395 371.768 88.5261 371.768C89.0115 371.768 89.4595 371.851 89.8701 372.016C90.2861 372.176 90.6435 372.411 90.9421 372.72C91.2461 373.024 91.4835 373.403 91.6541 373.856C91.8248 374.304 91.9101 374.816 91.9101 375.392C91.9101 375.616 91.8861 375.765 91.8381 375.84C91.7901 375.915 91.6995 375.952 91.5661 375.952H86.1501C86.1661 376.464 86.2355 376.909 86.3581 377.288C86.4861 377.667 86.6621 377.984 86.8861 378.24C87.1101 378.491 87.3768 378.68 87.6861 378.808C87.9955 378.931 88.3421 378.992 88.7261 378.992C89.0835 378.992 89.3901 378.952 89.6461 378.872C89.9075 378.787 90.1315 378.696 90.3181 378.6C90.5048 378.504 90.6595 378.416 90.7821 378.336C90.9101 378.251 91.0195 378.208 91.1101 378.208C91.2275 378.208 91.3181 378.253 91.3821 378.344L91.7821 378.864ZM101.117 380H99.6928V373.088H95.5168V377.952C95.5168 378.293 95.5994 378.547 95.7648 378.712C95.9301 378.877 96.1434 378.96 96.4048 378.96C96.5541 378.96 96.6821 378.941 96.7888 378.904C96.9008 378.861 96.9968 378.816 97.0768 378.768C97.1568 378.72 97.2234 378.677 97.2768 378.64C97.3354 378.597 97.3861 378.576 97.4288 378.576C97.5034 378.576 97.5701 378.621 97.6288 378.712L98.0448 379.392C97.7994 379.621 97.5034 379.803 97.1568 379.936C96.8101 380.064 96.4528 380.128 96.0848 380.128C95.4448 380.128 94.9514 379.949 94.6048 379.592C94.2634 379.235 94.0928 378.72 94.0928 378.048V373.088H93.1168C93.0314 373.088 92.9594 373.064 92.9008 373.016C92.8421 372.963 92.8128 372.883 92.8128 372.776V372.208L94.1408 372.032L94.4688 369.536C94.4848 369.456 94.5194 369.392 94.5728 369.344C94.6314 369.291 94.7061 369.264 94.7968 369.264H95.5168V372.056H101.117V380ZM101.469 369.296C101.469 369.435 101.439 369.565 101.381 369.688C101.327 369.805 101.253 369.909 101.157 370C101.066 370.091 100.959 370.163 100.837 370.216C100.714 370.269 100.583 370.296 100.445 370.296C100.306 370.296 100.175 370.269 100.053 370.216C99.9354 370.163 99.8314 370.091 99.7408 370C99.6501 369.909 99.5781 369.805 99.5248 369.688C99.4714 369.565 99.4448 369.435 99.4448 369.296C99.4448 369.157 99.4714 369.027 99.5248 368.904C99.5781 368.776 99.6501 368.667 99.7408 368.576C99.8314 368.48 99.9354 368.405 100.053 368.352C100.175 368.299 100.306 368.272 100.445 368.272C100.583 368.272 100.714 368.299 100.837 368.352C100.959 368.405 101.066 368.48 101.157 368.576C101.253 368.667 101.327 368.776 101.381 368.904C101.439 369.027 101.469 369.157 101.469 369.296ZM104.8 373.072C104.976 372.875 105.163 372.696 105.36 372.536C105.557 372.376 105.765 372.24 105.984 372.128C106.208 372.011 106.443 371.923 106.688 371.864C106.939 371.8 107.208 371.768 107.496 371.768C107.939 371.768 108.328 371.843 108.664 371.992C109.005 372.136 109.288 372.344 109.512 372.616C109.741 372.883 109.915 373.205 110.032 373.584C110.149 373.963 110.208 374.381 110.208 374.84V380H108.776V374.84C108.776 374.227 108.635 373.752 108.352 373.416C108.075 373.075 107.651 372.904 107.08 372.904C106.659 372.904 106.264 373.005 105.896 373.208C105.533 373.411 105.197 373.685 104.888 374.032V380H103.456V371.896H104.312C104.515 371.896 104.64 371.995 104.688 372.192L104.8 373.072ZM115.202 376.04C115.49 376.04 115.743 376 115.962 375.92C116.181 375.84 116.365 375.728 116.514 375.584C116.663 375.44 116.775 375.269 116.85 375.072C116.925 374.869 116.962 374.648 116.962 374.408C116.962 373.912 116.81 373.517 116.506 373.224C116.207 372.931 115.773 372.784 115.202 372.784C114.626 372.784 114.186 372.931 113.882 373.224C113.583 373.517 113.434 373.912 113.434 374.408C113.434 374.648 113.471 374.869 113.546 375.072C113.626 375.269 113.741 375.44 113.89 375.584C114.039 375.728 114.223 375.84 114.442 375.92C114.661 376 114.914 376.04 115.202 376.04ZM117.77 380.44C117.77 380.243 117.714 380.083 117.602 379.96C117.49 379.837 117.338 379.741 117.146 379.672C116.959 379.603 116.741 379.555 116.49 379.528C116.239 379.496 115.973 379.472 115.69 379.456C115.413 379.44 115.13 379.424 114.842 379.408C114.554 379.392 114.277 379.365 114.01 379.328C113.711 379.467 113.466 379.643 113.274 379.856C113.087 380.064 112.994 380.309 112.994 380.592C112.994 380.773 113.039 380.941 113.13 381.096C113.226 381.256 113.37 381.392 113.562 381.504C113.754 381.621 113.994 381.712 114.282 381.776C114.575 381.845 114.919 381.88 115.314 381.88C115.698 381.88 116.042 381.845 116.346 381.776C116.65 381.707 116.906 381.608 117.114 381.48C117.327 381.352 117.49 381.2 117.602 381.024C117.714 380.848 117.77 380.653 117.77 380.44ZM119.218 372.216V372.744C119.218 372.92 119.106 373.032 118.882 373.08L117.962 373.2C118.143 373.552 118.234 373.941 118.234 374.368C118.234 374.763 118.157 375.123 118.002 375.448C117.853 375.768 117.645 376.043 117.378 376.272C117.111 376.501 116.791 376.677 116.418 376.8C116.045 376.923 115.639 376.984 115.202 376.984C114.823 376.984 114.466 376.939 114.13 376.848C113.959 376.955 113.829 377.069 113.738 377.192C113.647 377.309 113.602 377.429 113.602 377.552C113.602 377.744 113.679 377.891 113.834 377.992C113.994 378.088 114.202 378.157 114.458 378.2C114.714 378.243 115.005 378.269 115.33 378.28C115.661 378.291 115.997 378.309 116.338 378.336C116.685 378.357 117.021 378.397 117.346 378.456C117.677 378.515 117.97 378.611 118.226 378.744C118.482 378.877 118.687 379.061 118.842 379.296C119.002 379.531 119.082 379.835 119.082 380.208C119.082 380.555 118.994 380.891 118.818 381.216C118.647 381.541 118.399 381.829 118.074 382.08C117.749 382.336 117.349 382.539 116.874 382.688C116.405 382.843 115.874 382.92 115.282 382.92C114.69 382.92 114.173 382.861 113.73 382.744C113.287 382.627 112.919 382.469 112.626 382.272C112.333 382.075 112.111 381.845 111.962 381.584C111.818 381.328 111.746 381.059 111.746 380.776C111.746 380.376 111.871 380.037 112.122 379.76C112.373 379.483 112.717 379.261 113.154 379.096C112.914 378.989 112.722 378.848 112.578 378.672C112.439 378.491 112.37 378.248 112.37 377.944C112.37 377.827 112.391 377.707 112.434 377.584C112.477 377.456 112.541 377.331 112.626 377.208C112.717 377.08 112.826 376.96 112.954 376.848C113.082 376.736 113.231 376.637 113.402 376.552C113.002 376.328 112.69 376.032 112.466 375.664C112.242 375.291 112.13 374.859 112.13 374.368C112.13 373.973 112.205 373.616 112.354 373.296C112.509 372.971 112.722 372.696 112.994 372.472C113.266 372.243 113.589 372.067 113.962 371.944C114.341 371.821 114.754 371.76 115.202 371.76C115.554 371.76 115.882 371.8 116.186 371.88C116.49 371.955 116.767 372.067 117.018 372.216H119.218Z" fill="#7C7C7C"/>
<rect y="413" width="215" height="40" rx="4" fill="white"/>
<path d="M28 436C29.6569 436 31 434.657 31 433C31 431.343 29.6569 430 28 430C26.3431 430 25 431.343 25 433C25 434.657 26.3431 436 28 436Z" stroke="#7C7C7C" stroke-width="1.5" stroke-miterlimit="10" stroke-linecap="round" stroke-linejoin="round"/>
<path d="M18 433.88V432.12C18 431.08 18.85 430.22 19.9 430.22C21.71 430.22 22.45 428.94 21.54 427.37C21.02 426.47 21.33 425.3 22.24 424.78L23.97 423.79C24.76 423.32 25.78 423.6 26.25 424.39L26.36 424.58C27.26 426.15 28.74 426.15 29.65 424.58L29.76 424.39C30.23 423.6 31.25 423.32 32.04 423.79L33.77 424.78C34.68 425.3 34.99 426.47 34.47 427.37C33.56 428.94 34.3 430.22 36.11 430.22C37.15 430.22 38.01 431.07 38.01 432.12V433.88C38.01 434.92 37.16 435.78 36.11 435.78C34.3 435.78 33.56 437.06 34.47 438.63C34.99 439.54 34.68 440.7 33.77 441.22L32.04 442.21C31.25 442.68 30.23 442.4 29.76 441.61L29.65 441.42C28.75 439.85 27.27 439.85 26.36 441.42L26.25 441.61C25.78 442.4 24.76 442.68 23.97 442.21L22.24 441.22C21.33 440.7 21.02 439.53 21.54 438.63C22.45 437.06 21.71 435.78 19.9 435.78C18.85 435.78 18 434.92 18 433.88Z" stroke="#7C7C7C" stroke-width="1.5" stroke-miterlimit="10" stroke-linecap="round" stroke-linejoin="round"/>
<path d="M55.328 429.328C55.28 429.408 55.2267 429.469 55.168 429.512C55.1147 429.549 55.048 429.568 54.968 429.568C54.8773 429.568 54.7707 429.523 54.648 429.432C54.5253 429.341 54.3707 429.243 54.184 429.136C54.0027 429.024 53.7813 428.923 53.52 428.832C53.264 428.741 52.952 428.696 52.584 428.696C52.2373 428.696 51.9307 428.744 51.664 428.84C51.4027 428.931 51.1813 429.056 51 429.216C50.824 429.376 50.6907 429.565 50.6 429.784C50.5093 429.997 50.464 430.229 50.464 430.48C50.464 430.8 50.5413 431.067 50.696 431.28C50.856 431.488 51.064 431.667 51.32 431.816C51.5813 431.965 51.8747 432.096 52.2 432.208C52.5307 432.315 52.8667 432.427 53.208 432.544C53.5547 432.661 53.8907 432.795 54.216 432.944C54.5467 433.088 54.84 433.272 55.096 433.496C55.3573 433.72 55.5653 433.995 55.72 434.32C55.88 434.645 55.96 435.045 55.96 435.52C55.96 436.021 55.8747 436.493 55.704 436.936C55.5333 437.373 55.2827 437.755 54.952 438.08C54.6267 438.405 54.224 438.661 53.744 438.848C53.2693 439.035 52.728 439.128 52.12 439.128C51.3733 439.128 50.696 438.995 50.088 438.728C49.48 438.456 48.96 438.091 48.528 437.632L48.976 436.896C49.0187 436.837 49.0693 436.789 49.128 436.752C49.192 436.709 49.2613 436.688 49.336 436.688C49.4053 436.688 49.4827 436.717 49.568 436.776C49.6587 436.829 49.76 436.899 49.872 436.984C49.984 437.069 50.112 437.163 50.256 437.264C50.4 437.365 50.5627 437.459 50.744 437.544C50.9307 437.629 51.1413 437.701 51.376 437.76C51.6107 437.813 51.8747 437.84 52.168 437.84C52.536 437.84 52.864 437.789 53.152 437.688C53.44 437.587 53.6827 437.445 53.88 437.264C54.0827 437.077 54.2373 436.856 54.344 436.6C54.4507 436.344 54.504 436.059 54.504 435.744C54.504 435.397 54.424 435.115 54.264 434.896C54.1093 434.672 53.904 434.485 53.648 434.336C53.392 434.187 53.0987 434.061 52.768 433.96C52.4373 433.853 52.1013 433.747 51.76 433.64C51.4187 433.528 51.0827 433.4 50.752 433.256C50.4213 433.112 50.128 432.925 49.872 432.696C49.616 432.467 49.408 432.181 49.248 431.84C49.0933 431.493 49.016 431.067 49.016 430.56C49.016 430.155 49.0933 429.763 49.248 429.384C49.408 429.005 49.6373 428.669 49.936 428.376C50.24 428.083 50.6107 427.848 51.048 427.672C51.4907 427.496 51.9973 427.408 52.568 427.408C53.208 427.408 53.7893 427.509 54.312 427.712C54.84 427.915 55.304 428.208 55.704 428.592L55.328 429.328ZM63.1926 434.064C63.1926 433.733 63.1446 433.432 63.0486 433.16C62.958 432.883 62.822 432.645 62.6406 432.448C62.4646 432.245 62.2486 432.091 61.9926 431.984C61.7366 431.872 61.446 431.816 61.1206 431.816C60.438 431.816 59.8966 432.016 59.4966 432.416C59.102 432.811 58.8566 433.36 58.7606 434.064H63.1926ZM64.3446 437.864C64.1686 438.077 63.958 438.264 63.7126 438.424C63.4673 438.579 63.2033 438.707 62.9206 438.808C62.6433 438.909 62.3553 438.984 62.0566 439.032C61.758 439.085 61.462 439.112 61.1686 439.112C60.6086 439.112 60.0913 439.019 59.6166 438.832C59.1473 438.64 58.7393 438.363 58.3926 438C58.0513 437.632 57.7846 437.179 57.5926 436.64C57.4006 436.101 57.3046 435.483 57.3046 434.784C57.3046 434.219 57.39 433.691 57.5606 433.2C57.7366 432.709 57.9873 432.285 58.3126 431.928C58.638 431.565 59.0353 431.283 59.5046 431.08C59.974 430.872 60.502 430.768 61.0886 430.768C61.574 430.768 62.022 430.851 62.4326 431.016C62.8486 431.176 63.206 431.411 63.5046 431.72C63.8086 432.024 64.046 432.403 64.2166 432.856C64.3873 433.304 64.4726 433.816 64.4726 434.392C64.4726 434.616 64.4486 434.765 64.4006 434.84C64.3526 434.915 64.262 434.952 64.1286 434.952H58.7126C58.7286 435.464 58.798 435.909 58.9206 436.288C59.0486 436.667 59.2246 436.984 59.4486 437.24C59.6726 437.491 59.9393 437.68 60.2486 437.808C60.558 437.931 60.9046 437.992 61.2886 437.992C61.646 437.992 61.9526 437.952 62.2086 437.872C62.47 437.787 62.694 437.696 62.8806 437.6C63.0673 437.504 63.222 437.416 63.3446 437.336C63.4726 437.251 63.582 437.208 63.6726 437.208C63.79 437.208 63.8806 437.253 63.9446 437.344L64.3446 437.864ZM78.7113 439H77.2873V432.088H73.2713V436.952C73.2713 437.293 73.3539 437.547 73.5193 437.712C73.6899 437.877 73.9033 437.96 74.1593 437.96C74.3086 437.96 74.4366 437.941 74.5433 437.904C74.6553 437.861 74.7513 437.816 74.8313 437.768C74.9113 437.72 74.9779 437.677 75.0312 437.64C75.0899 437.597 75.1406 437.576 75.1833 437.576C75.2633 437.576 75.3299 437.621 75.3833 437.712L75.8073 438.392C75.5566 438.621 75.2579 438.803 74.9113 438.936C74.5646 439.064 74.2073 439.128 73.8393 439.128C73.2046 439.128 72.7139 438.949 72.3673 438.592C72.0206 438.235 71.8473 437.72 71.8473 437.048V432.088H68.0793V436.952C68.0793 437.293 68.1619 437.547 68.3273 437.712C68.4926 437.877 68.7059 437.96 68.9673 437.96C69.1166 437.96 69.2446 437.941 69.3513 437.904C69.4633 437.861 69.5593 437.816 69.6393 437.768C69.7193 437.72 69.7859 437.677 69.8393 437.64C69.8979 437.597 69.9486 437.576 69.9913 437.576C70.0659 437.576 70.1326 437.621 70.1913 437.712L70.6073 438.392C70.3619 438.621 70.0659 438.803 69.7193 438.936C69.3726 439.064 69.0153 439.128 68.6473 439.128C68.0073 439.128 67.5139 438.949 67.1673 438.592C66.8259 438.235 66.6553 437.72 66.6553 437.048V432.088H65.6793C65.5939 432.088 65.5219 432.064 65.4633 432.016C65.4046 431.963 65.3753 431.883 65.3753 431.776V431.208L66.7033 431.032L67.0312 428.536C67.0473 428.456 67.0819 428.392 67.1353 428.344C67.1939 428.291 67.2686 428.264 67.3593 428.264H68.0793V431.056H71.8953L72.2233 428.536C72.2393 428.456 72.2739 428.392 72.3273 428.344C72.3859 428.291 72.4606 428.264 72.5513 428.264H73.2713V431.056H78.7113V439ZM79.0393 428.296C79.0393 428.435 79.0099 428.565 78.9513 428.688C78.8979 428.805 78.8233 428.909 78.7273 429C78.6366 429.091 78.5299 429.163 78.4073 429.216C78.2846 429.269 78.1539 429.296 78.0153 429.296C77.8766 429.296 77.7459 429.269 77.6233 429.216C77.5059 429.163 77.4019 429.091 77.3113 429C77.2206 428.909 77.1486 428.805 77.0953 428.688C77.0419 428.565 77.0153 428.435 77.0153 428.296C77.0153 428.157 77.0419 428.027 77.0953 427.904C77.1486 427.776 77.2206 427.667 77.3113 427.576C77.4019 427.48 77.5059 427.405 77.6233 427.352C77.7459 427.299 77.8766 427.272 78.0153 427.272C78.1539 427.272 78.2846 427.299 78.4073 427.352C78.5299 427.405 78.6366 427.48 78.7273 427.576C78.8233 427.667 78.8979 427.776 78.9513 427.904C79.0099 428.027 79.0393 428.157 79.0393 428.296ZM82.3939 432.072C82.5699 431.875 82.7565 431.696 82.9539 431.536C83.1512 431.376 83.3592 431.24 83.5779 431.128C83.8019 431.011 84.0365 430.923 84.2819 430.864C84.5325 430.8 84.8019 430.768 85.0899 430.768C85.5325 430.768 85.9219 430.843 86.2579 430.992C86.5992 431.136 86.8819 431.344 87.1059 431.616C87.3352 431.883 87.5085 432.205 87.6259 432.584C87.7432 432.963 87.8019 433.381 87.8019 433.84V439H86.3699V433.84C86.3699 433.227 86.2285 432.752 85.9459 432.416C85.6685 432.075 85.2445 431.904 84.6739 431.904C84.2525 431.904 83.8579 432.005 83.4899 432.208C83.1272 432.411 82.7912 432.685 82.4819 433.032V439H81.0499V430.896H81.9059C82.1085 430.896 82.2339 430.995 82.2819 431.192L82.3939 432.072ZM92.7958 435.04C93.0838 435.04 93.3371 435 93.5558 434.92C93.7744 434.84 93.9584 434.728 94.1078 434.584C94.2571 434.44 94.3691 434.269 94.4438 434.072C94.5184 433.869 94.5558 433.648 94.5558 433.408C94.5558 432.912 94.4038 432.517 94.0998 432.224C93.8011 431.931 93.3664 431.784 92.7958 431.784C92.2198 431.784 91.7798 431.931 91.4758 432.224C91.1771 432.517 91.0278 432.912 91.0278 433.408C91.0278 433.648 91.0651 433.869 91.1398 434.072C91.2198 434.269 91.3344 434.44 91.4838 434.584C91.6331 434.728 91.8171 434.84 92.0358 434.92C92.2544 435 92.5078 435.04 92.7958 435.04ZM95.3638 439.44C95.3638 439.243 95.3078 439.083 95.1958 438.96C95.0838 438.837 94.9318 438.741 94.7398 438.672C94.5531 438.603 94.3344 438.555 94.0838 438.528C93.8331 438.496 93.5664 438.472 93.2838 438.456C93.0064 438.44 92.7238 438.424 92.4358 438.408C92.1478 438.392 91.8704 438.365 91.6038 438.328C91.3051 438.467 91.0598 438.643 90.8678 438.856C90.6811 439.064 90.5878 439.309 90.5878 439.592C90.5878 439.773 90.6331 439.941 90.7238 440.096C90.8198 440.256 90.9638 440.392 91.1558 440.504C91.3478 440.621 91.5878 440.712 91.8758 440.776C92.1691 440.845 92.5131 440.88 92.9078 440.88C93.2918 440.88 93.6358 440.845 93.9398 440.776C94.2438 440.707 94.4998 440.608 94.7078 440.48C94.9211 440.352 95.0838 440.2 95.1958 440.024C95.3078 439.848 95.3638 439.653 95.3638 439.44ZM96.8118 431.216V431.744C96.8118 431.92 96.6998 432.032 96.4758 432.08L95.5558 432.2C95.7371 432.552 95.8278 432.941 95.8278 433.368C95.8278 433.763 95.7504 434.123 95.5958 434.448C95.4464 434.768 95.2384 435.043 94.9718 435.272C94.7051 435.501 94.3851 435.677 94.0118 435.8C93.6384 435.923 93.2331 435.984 92.7958 435.984C92.4171 435.984 92.0598 435.939 91.7238 435.848C91.5531 435.955 91.4224 436.069 91.3318 436.192C91.2411 436.309 91.1957 436.429 91.1957 436.552C91.1957 436.744 91.2731 436.891 91.4278 436.992C91.5878 437.088 91.7958 437.157 92.0518 437.2C92.3078 437.243 92.5984 437.269 92.9238 437.28C93.2544 437.291 93.5904 437.309 93.9318 437.336C94.2784 437.357 94.6144 437.397 94.9398 437.456C95.2704 437.515 95.5638 437.611 95.8198 437.744C96.0758 437.877 96.2811 438.061 96.4358 438.296C96.5958 438.531 96.6758 438.835 96.6758 439.208C96.6758 439.555 96.5878 439.891 96.4118 440.216C96.2411 440.541 95.9931 440.829 95.6678 441.08C95.3424 441.336 94.9424 441.539 94.4678 441.688C93.9984 441.843 93.4678 441.92 92.8758 441.92C92.2838 441.92 91.7664 441.861 91.3238 441.744C90.8811 441.627 90.5131 441.469 90.2198 441.272C89.9264 441.075 89.7051 440.845 89.5558 440.584C89.4118 440.328 89.3398 440.059 89.3398 439.776C89.3398 439.376 89.4651 439.037 89.7158 438.76C89.9664 438.483 90.3104 438.261 90.7478 438.096C90.5078 437.989 90.3158 437.848 90.1718 437.672C90.0331 437.491 89.9638 437.248 89.9638 436.944C89.9638 436.827 89.9851 436.707 90.0278 436.584C90.0704 436.456 90.1344 436.331 90.2198 436.208C90.3104 436.08 90.4198 435.96 90.5478 435.848C90.6758 435.736 90.8251 435.637 90.9958 435.552C90.5958 435.328 90.2838 435.032 90.0598 434.664C89.8358 434.291 89.7238 433.859 89.7238 433.368C89.7238 432.973 89.7984 432.616 89.9478 432.296C90.1024 431.971 90.3158 431.696 90.5878 431.472C90.8598 431.243 91.1824 431.067 91.5558 430.944C91.9344 430.821 92.3478 430.76 92.7958 430.76C93.1478 430.76 93.4758 430.8 93.7798 430.88C94.0838 430.955 94.3611 431.067 94.6118 431.216H96.8118Z" fill="#7C7C7C"/>
<rect y="472" width="215" height="40" rx="4" fill="white"/>
<path d="M24.8999 487.56C25.2099 483.96 27.0599 482.49 31.1099 482.49H31.2399C35.7099 482.49 37.4999 484.28 37.4999 488.75V495.27C37.4999 499.74 35.7099 501.53 31.2399 501.53H31.1099C27.0899 501.53 25.2399 500.08 24.9099 496.54" stroke="#7C7C7C" stroke-width="1.5" stroke-linecap="round" stroke-linejoin="round"/>
<path d="M31.0001 492H19.6201" stroke="#7C7C7C" stroke-width="1.5" stroke-linecap="round" stroke-linejoin="round"/>
<path d="M21.85 488.65L18.5 492L21.85 495.35" stroke="#7C7C7C" stroke-width="1.5" stroke-linecap="round" stroke-linejoin="round"/>
<path d="M55.968 496.696V498H49.464V486.536H51.008V496.696H55.968ZM60.1846 489.768C60.7766 489.768 61.31 489.867 61.7846 490.064C62.2593 490.261 62.6646 490.541 63.0006 490.904C63.3366 491.267 63.5926 491.707 63.7686 492.224C63.95 492.736 64.0406 493.309 64.0406 493.944C64.0406 494.584 63.95 495.16 63.7686 495.672C63.5926 496.184 63.3366 496.621 63.0006 496.984C62.6646 497.347 62.2593 497.627 61.7846 497.824C61.31 498.016 60.7766 498.112 60.1846 498.112C59.5873 498.112 59.0486 498.016 58.5686 497.824C58.094 497.627 57.6886 497.347 57.3526 496.984C57.0166 496.621 56.758 496.184 56.5766 495.672C56.4006 495.16 56.3126 494.584 56.3126 493.944C56.3126 493.309 56.4006 492.736 56.5766 492.224C56.758 491.707 57.0166 491.267 57.3526 490.904C57.6886 490.541 58.094 490.261 58.5686 490.064C59.0486 489.867 59.5873 489.768 60.1846 489.768ZM60.1846 497C60.9846 497 61.582 496.733 61.9766 496.2C62.3713 495.661 62.5686 494.912 62.5686 493.952C62.5686 492.987 62.3713 492.235 61.9766 491.696C61.582 491.157 60.9846 490.888 60.1846 490.888C59.7793 490.888 59.4246 490.957 59.1206 491.096C58.822 491.235 58.5713 491.435 58.3686 491.696C58.1713 491.957 58.022 492.28 57.9206 492.664C57.8246 493.043 57.7766 493.472 57.7766 493.952C57.7766 494.912 57.974 495.661 58.3686 496.2C58.7686 496.733 59.374 497 60.1846 497ZM68.6239 494.04C68.9119 494.04 69.1652 494 69.3839 493.92C69.6025 493.84 69.7865 493.728 69.9359 493.584C70.0852 493.44 70.1972 493.269 70.2719 493.072C70.3465 492.869 70.3839 492.648 70.3839 492.408C70.3839 491.912 70.2319 491.517 69.9279 491.224C69.6292 490.931 69.1945 490.784 68.6239 490.784C68.0479 490.784 67.6079 490.931 67.3039 491.224C67.0052 491.517 66.8559 491.912 66.8559 492.408C66.8559 492.648 66.8932 492.869 66.9679 493.072C67.0479 493.269 67.1625 493.44 67.3119 493.584C67.4612 493.728 67.6452 493.84 67.8639 493.92C68.0825 494 68.3359 494.04 68.6239 494.04ZM71.1919 498.44C71.1919 498.243 71.1359 498.083 71.0239 497.96C70.9119 497.837 70.7599 497.741 70.5679 497.672C70.3812 497.603 70.1625 497.555 69.9119 497.528C69.6612 497.496 69.3945 497.472 69.1119 497.456C68.8345 497.44 68.5519 497.424 68.2639 497.408C67.9759 497.392 67.6985 497.365 67.4319 497.328C67.1332 497.467 66.8879 497.643 66.6959 497.856C66.5092 498.064 66.4159 498.309 66.4159 498.592C66.4159 498.773 66.4612 498.941 66.5519 499.096C66.6479 499.256 66.7919 499.392 66.9839 499.504C67.1759 499.621 67.4159 499.712 67.7039 499.776C67.9972 499.845 68.3412 499.88 68.7359 499.88C69.1199 499.88 69.4639 499.845 69.7679 499.776C70.0719 499.707 70.3279 499.608 70.5359 499.48C70.7492 499.352 70.9119 499.2 71.0239 499.024C71.1359 498.848 71.1919 498.653 71.1919 498.44ZM72.6399 490.216V490.744C72.6399 490.92 72.5279 491.032 72.3039 491.08L71.3839 491.2C71.5652 491.552 71.6559 491.941 71.6559 492.368C71.6559 492.763 71.5785 493.123 71.4239 493.448C71.2745 493.768 71.0665 494.043 70.7999 494.272C70.5332 494.501 70.2132 494.677 69.8399 494.8C69.4665 494.923 69.0612 494.984 68.6239 494.984C68.2452 494.984 67.8879 494.939 67.5519 494.848C67.3812 494.955 67.2505 495.069 67.1599 495.192C67.0692 495.309 67.0239 495.429 67.0239 495.552C67.0239 495.744 67.1012 495.891 67.2559 495.992C67.4159 496.088 67.6239 496.157 67.8799 496.2C68.1359 496.243 68.4265 496.269 68.7519 496.28C69.0825 496.291 69.4185 496.309 69.7599 496.336C70.1065 496.357 70.4425 496.397 70.7679 496.456C71.0985 496.515 71.3919 496.611 71.6479 496.744C71.9039 496.877 72.1092 497.061 72.2639 497.296C72.4239 497.531 72.5039 497.835 72.5039 498.208C72.5039 498.555 72.4159 498.891 72.2399 499.216C72.0692 499.541 71.8212 499.829 71.4959 500.08C71.1705 500.336 70.7705 500.539 70.2959 500.688C69.8265 500.843 69.2959 500.92 68.7039 500.92C68.1119 500.92 67.5945 500.861 67.1519 500.744C66.7092 500.627 66.3412 500.469 66.0479 500.272C65.7545 500.075 65.5332 499.845 65.3839 499.584C65.2399 499.328 65.1679 499.059 65.1679 498.776C65.1679 498.376 65.2932 498.037 65.5439 497.76C65.7945 497.483 66.1385 497.261 66.5759 497.096C66.3359 496.989 66.1439 496.848 65.9999 496.672C65.8612 496.491 65.7919 496.248 65.7919 495.944C65.7919 495.827 65.8132 495.707 65.8559 495.584C65.8985 495.456 65.9625 495.331 66.0479 495.208C66.1385 495.08 66.2479 494.96 66.3759 494.848C66.5039 494.736 66.6532 494.637 66.8239 494.552C66.4239 494.328 66.1119 494.032 65.8879 493.664C65.6639 493.291 65.5519 492.859 65.5519 492.368C65.5519 491.973 65.6265 491.616 65.7759 491.296C65.9305 490.971 66.1439 490.696 66.4159 490.472C66.6879 490.243 67.0105 490.067 67.3839 489.944C67.7625 489.821 68.1759 489.76 68.6239 489.76C68.9759 489.76 69.3039 489.8 69.6079 489.88C69.9119 489.955 70.1892 490.067 70.4399 490.216H72.6399ZM77.4034 489.768C77.9954 489.768 78.5287 489.867 79.0034 490.064C79.478 490.261 79.8834 490.541 80.2194 490.904C80.5554 491.267 80.8114 491.707 80.9874 492.224C81.1687 492.736 81.2594 493.309 81.2594 493.944C81.2594 494.584 81.1687 495.16 80.9874 495.672C80.8114 496.184 80.5554 496.621 80.2194 496.984C79.8834 497.347 79.478 497.627 79.0034 497.824C78.5287 498.016 77.9954 498.112 77.4034 498.112C76.806 498.112 76.2674 498.016 75.7874 497.824C75.3127 497.627 74.9074 497.347 74.5714 496.984C74.2354 496.621 73.9767 496.184 73.7954 495.672C73.6194 495.16 73.5314 494.584 73.5314 493.944C73.5314 493.309 73.6194 492.736 73.7954 492.224C73.9767 491.707 74.2354 491.267 74.5714 490.904C74.9074 490.541 75.3127 490.261 75.7874 490.064C76.2674 489.867 76.806 489.768 77.4034 489.768ZM77.4034 497C78.2034 497 78.8007 496.733 79.1954 496.2C79.59 495.661 79.7874 494.912 79.7874 493.952C79.7874 492.987 79.59 492.235 79.1954 491.696C78.8007 491.157 78.2034 490.888 77.4034 490.888C76.998 490.888 76.6434 490.957 76.3394 491.096C76.0407 491.235 75.79 491.435 75.5874 491.696C75.39 491.957 75.2407 492.28 75.1394 492.664C75.0434 493.043 74.9954 493.472 74.9954 493.952C74.9954 494.912 75.1927 495.661 75.5874 496.2C75.9874 496.733 76.5927 497 77.4034 497ZM89.7295 489.896V498H88.8815C88.6788 498 88.5508 497.901 88.4975 497.704L88.3855 496.832C88.0335 497.221 87.6388 497.536 87.2015 497.776C86.7642 498.011 86.2628 498.128 85.6975 498.128C85.2548 498.128 84.8628 498.056 84.5215 497.912C84.1855 497.763 83.9028 497.555 83.6735 497.288C83.4442 497.021 83.2708 496.699 83.1535 496.32C83.0415 495.941 82.9855 495.523 82.9855 495.064V489.896H84.4095V495.064C84.4095 495.677 84.5482 496.152 84.8255 496.488C85.1082 496.824 85.5375 496.992 86.1135 496.992C86.5348 496.992 86.9268 496.893 87.2895 496.696C87.6575 496.493 87.9962 496.216 88.3055 495.864V489.896H89.7295ZM94.4754 498.128C93.8354 498.128 93.342 497.949 92.9954 497.592C92.654 497.235 92.4834 496.72 92.4834 496.048V491.088H91.5074C91.422 491.088 91.35 491.064 91.2914 491.016C91.2327 490.963 91.2034 490.883 91.2034 490.776V490.208L92.5314 490.04L92.8594 487.536C92.8754 487.456 92.91 487.392 92.9634 487.344C93.022 487.291 93.0967 487.264 93.1874 487.264H93.9074V490.056H96.2514V491.088H93.9074V495.952C93.9074 496.293 93.99 496.547 94.1554 496.712C94.3207 496.877 94.534 496.96 94.7954 496.96C94.9447 496.96 95.0727 496.941 95.1794 496.904C95.2914 496.861 95.3874 496.816 95.4674 496.768C95.5474 496.72 95.614 496.677 95.6674 496.64C95.726 496.597 95.7767 496.576 95.8194 496.576C95.894 496.576 95.9607 496.621 96.0194 496.712L96.4354 497.392C96.19 497.621 95.894 497.803 95.5474 497.936C95.2007 498.064 94.8434 498.128 94.4754 498.128Z" fill="#7C7C7C"/>
</svg>
